<?xml version="1.0" encoding="UTF-8" standalone="no"?>
<svg width="948px" height="521px" viewBox="0 0 948 521" version="1.1" xmlns="http://www.w3.org/2000/svg" xmlns:xlink="http://www.w3.org/1999/xlink" xmlns:sketch="http://www.bohemiancoding.com/sketch/ns">
    <!-- Generator: Sketch 3.0.4 (8054) - http://www.bohemiancoding.com/sketch -->
    <title>Group</title>
    <desc>Created with Sketch.</desc>
    <defs>
        <path id="path-1" d="M275,264 L0,232 L77,113 L206,29 L278,0 L275,264 Z"></path>
        <path id="path-3" d="M472,250 L271,31 L0,7.27595761e-12 L20,135 L131,241 L322,302 L472,250 Z"></path>
        <path id="path-5" d="M285,3 L433,56 L525,154 L563,325 L524,473 L481,489 L280,271 L285,3 Z"></path>
        <circle id="path-7" cx="97.5" cy="97.5" r="97.5"></circle>
    </defs>
    <g id="Page-1" stroke="none" stroke-width="1" fill="none" fill-rule="evenodd" sketch:type="MSPage">
        <g id="Group" sketch:type="MSLayerGroup" transform="translate(1.000000, -63.000000)">
            <g id="diagramm-+-Oval-4" transform="translate(152.000000, 0.000000)">
                <g id="diagramm" transform="translate(286.515580, 275.785282) rotate(-181.000000) translate(-286.515580, -275.785282) translate(5.015580, 4.785282)">
                    <g id="Path-95-+-Oval-4" transform="translate(0.017452, 0.000152)">
                        <mask id="mask-2" sketch:name="Path 95" fill="white">
                            <use xlink:href="#path-1"></use>
                        </mask>
                        <use id="Path-95" sketch:type="MSShapeGroup" xlink:href="#path-1"></use>
                        <path d="M274.5,453 C376.948821,453 460,369.948821 460,267.5 C460,165.051179 376.948821,82 274.5,82 C172.051179,82 89,165.051179 89,267.5 C89,369.948821 172.051179,453 274.5,453 L274.5,453 Z M186.825871,267.961443 C186.825871,219.28551 226.28551,179.825871 274.961443,179.825871 C323.637375,179.825871 363.097015,219.28551 363.097015,267.961443 C363.097015,316.637375 323.637375,356.097015 274.961443,356.097015 C226.28551,356.097015 186.825871,316.637375 186.825871,267.961443 L186.825871,267.961443 Z" id="Oval-4" stroke="#979797" fill="#FD9B00" sketch:type="MSShapeGroup" mask="url(#mask-2)"></path>
                    </g>
                    <g id="Path-96-+-Oval-5" transform="translate(1.000000, 240.000000)">
                        <mask id="mask-4" sketch:name="Path 96" fill="white">
                            <use xlink:href="#path-3"></use>
                        </mask>
                        <use id="Path-96" sketch:type="MSShapeGroup" xlink:href="#path-3"></use>
                        <path d="M272.552357,218.000457 C375.001178,218.000457 458.052357,134.949278 458.052357,32.5004569 C458.052357,-69.9483642 375.001178,-152.999543 272.552357,-152.999543 C170.103536,-152.999543 87.0523572,-69.9483642 87.0523572,32.5004569 C87.0523572,134.949278 170.103536,218.000457 272.552357,218.000457 L272.552357,218.000457 Z M184.878228,32.9618997 C184.878228,-15.7140327 224.337868,-55.1736724 273.0138,-55.1736724 C321.689732,-55.1736724 361.149372,-15.7140327 361.149372,32.9618997 C361.149372,81.6378321 321.689732,121.097472 273.0138,121.097472 C224.337868,121.097472 184.878228,81.6378321 184.878228,32.9618997 L184.878228,32.9618997 Z" id="Oval-5" stroke="#979797" fill="#DA3F00" sketch:type="MSShapeGroup" mask="url(#mask-4)"></path>
                    </g>
                    <mask id="mask-6" sketch:name="Path 97" fill="white">
                        <use xlink:href="#path-5"></use>
                    </mask>
                    <use id="Path-97" sketch:type="MSShapeGroup" xlink:href="#path-5"></use>
                    <path d="M279.5,454 C381.948821,454 465,370.948821 465,268.5 C465,166.051179 381.948821,83 279.5,83 C177.051179,83 94,166.051179 94,268.5 C94,370.948821 177.051179,454 279.5,454 L279.5,454 Z M191.825871,268.961443 C191.825871,220.28551 231.28551,180.825871 279.961443,180.825871 C328.637375,180.825871 368.097015,220.28551 368.097015,268.961443 C368.097015,317.637375 328.637375,357.097015 279.961443,357.097015 C231.28551,357.097015 191.825871,317.637375 191.825871,268.961443 L191.825871,268.961443 Z" id="Oval-6" stroke="#979797" fill="#3064D2" sketch:type="MSShapeGroup" mask="url(#mask-6)"></path>
                </g>
                <circle id="Oval-4" fill="#FFFFFF" sketch:type="MSShapeGroup" cx="292.5" cy="278.5" r="97.5"></circle>
            </g>
            <g id="42-+-СОБСТВЕННИКА" transform="translate(0.000000, 220.000000)" fill="#000000" sketch:type="MSShapeGroup">
                <path d="M175.686523,43.6728516 L181.53125,43.6728516 L181.53125,54.2490234 L175.686523,54.2490234 L175.686523,69 L162.559082,69 L162.559082,54.2490234 L140.154297,54.2490234 L139.458496,45.9921875 L162.512695,1.4609375 L175.686523,1.4609375 L175.686523,43.6728516 Z M151.42627,43.6728516 L162.559082,43.6728516 L162.559082,20.340332 L162.280762,20.2939453 L161.584961,21.5463867 L151.42627,43.6728516 Z M228.010742,69 L188.118164,69 L188.118164,60.0473633 L206.533691,36.7148438 C208.976737,33.2512848 210.731684,30.2361782 211.798584,27.6694336 C212.865484,25.102689 213.398926,22.7679142 213.398926,20.6650391 C213.398926,17.7890481 212.842291,15.4697354 211.729004,13.7070312 C210.615717,11.9443271 209.00766,11.0629883 206.904785,11.0629883 C204.740061,11.0629883 203.077887,12.1298721 201.918213,14.2636719 C200.758539,16.3974716 200.178711,19.196109 200.178711,22.659668 L187.32959,22.659668 L187.236816,22.4277344 C187.113118,16.3046569 188.844871,11.1171274 192.432129,6.86499023 C196.019386,2.61285309 200.843557,0.486816406 206.904785,0.486816406 C213.089712,0.486816406 217.913882,2.28041826 221.377441,5.86767578 C224.841,9.4549333 226.572754,14.3409521 226.572754,20.5258789 C226.572754,24.6697798 225.606374,28.5043769 223.673584,32.0297852 C221.740794,35.5551934 218.51695,40.1628947 214.001953,45.8530273 L205.188477,58.4702148 L228.010742,58.4702148 L228.010742,69 Z" id="42"></path>
                <path d="M15.6132812,105.230469 L15.6660156,105.335938 C15.6542968,107.890638 14.9746161,109.868157 13.6269531,111.268555 C12.2792901,112.668952 10.3750123,113.369141 7.9140625,113.369141 C5.40623746,113.369141 3.40235125,112.525399 1.90234375,110.837891 C0.40233625,109.150382 -0.34765625,106.794937 -0.34765625,103.771484 L-0.34765625,96.6699219 C-0.34765625,93.6464693 0.393547275,91.2851647 1.87597656,89.5859375 C3.35840585,87.8867103 5.33592514,87.0371094 7.80859375,87.0371094 C10.3164188,87.0371094 12.2441339,87.7226494 13.5917969,89.09375 C14.9394599,90.4648506 15.6308592,92.4687368 15.6660156,95.1054688 L15.6132812,95.2109375 L12.2382812,95.2109375 C12.2031248,93.3476469 11.8339879,91.9765669 11.1308594,91.0976562 C10.4277309,90.2187456 9.32032006,89.7792969 7.80859375,89.7792969 C6.34374268,89.7792969 5.20703529,90.3710878 4.3984375,91.5546875 C3.58983971,92.7382872 3.18554688,94.4257703 3.18554688,96.6171875 L3.18554688,103.771484 C3.18554688,105.998058 3.59862868,107.703119 4.42480469,108.886719 C5.25098069,110.070318 6.414055,110.662109 7.9140625,110.662109 C9.39063238,110.662109 10.4716763,110.23145 11.1572266,109.370117 C11.8427769,108.508785 12.1972655,107.128916 12.2207031,105.230469 L15.6132812,105.230469 Z M35.828125,103.736328 C35.828125,106.7715 35.0429766,109.135734 33.4726562,110.829102 C31.9023359,112.522469 29.7988413,113.369141 27.1621094,113.369141 C24.5605339,113.369141 22.4921952,112.522469 20.9570312,110.829102 C19.4218673,109.135734 18.6542969,106.7715 18.6542969,103.736328 L18.6542969,96.7050781 C18.6542969,93.6816255 19.424797,91.3144617 20.9658203,89.6035156 C22.5068436,87.8925696 24.5722527,87.0371094 27.1621094,87.0371094 C29.7871225,87.0371094 31.8876874,87.8925696 33.4638672,89.6035156 C35.0400469,91.3144617 35.828125,93.6816255 35.828125,96.7050781 L35.828125,103.736328 Z M32.2773438,96.6523438 C32.2773438,94.4257701 31.8320357,92.7353573 30.9414062,91.5810547 C30.0507768,90.426752 28.7910238,89.8496094 27.1621094,89.8496094 C25.5566326,89.8496094 24.3261762,90.426752 23.4707031,91.5810547 C22.6152301,92.7353573 22.1875,94.4257701 22.1875,96.6523438 L22.1875,103.736328 C22.1875,105.986339 22.6181598,107.6914 23.4794922,108.851562 C24.3408246,110.011725 25.5683514,110.591797 27.1621094,110.591797 C28.8027426,110.591797 30.0654253,110.014654 30.9501953,108.860352 C31.8349654,107.706049 32.2773438,105.998058 32.2773438,103.736328 L32.2773438,96.6523438 Z M53.4765625,90.1484375 L43.3515625,90.1484375 L43.3515625,97.8476562 L47.8515625,97.8476562 C50.2656371,97.8476562 52.1581963,98.5302666 53.5292969,99.8955078 C54.9003975,101.260749 55.5859375,103.080067 55.5859375,105.353516 C55.5859375,107.662121 54.8974678,109.513665 53.5205078,110.908203 C52.1435478,112.302741 50.2539183,113 47.8515625,113 L39.7832031,113 L39.7832031,87.40625 L53.4765625,87.40625 L53.4765625,90.1484375 Z M43.3515625,100.572266 L43.3515625,110.292969 L47.8515625,110.292969 C49.2226631,110.292969 50.2597621,109.824223 50.9628906,108.886719 C51.6660191,107.949214 52.0175781,106.759773 52.0175781,105.318359 C52.0175781,103.947259 51.6660191,102.813481 50.9628906,101.916992 C50.2597621,101.020503 49.2226631,100.572266 47.8515625,100.572266 L43.3515625,100.572266 Z M74.4824219,105.230469 L74.5351562,105.335938 C74.5234374,107.890638 73.8437567,109.868157 72.4960938,111.268555 C71.1484308,112.668952 69.2441529,113.369141 66.7832031,113.369141 C64.2753781,113.369141 62.2714919,112.525399 60.7714844,110.837891 C59.2714769,109.150382 58.5214844,106.794937 58.5214844,103.771484 L58.5214844,96.6699219 C58.5214844,93.6464693 59.2626879,91.2851647 60.7451172,89.5859375 C62.2275465,87.8867103 64.2050658,87.0371094 66.6777344,87.0371094 C69.1855594,87.0371094 71.1132745,87.7226494 72.4609375,89.09375 C73.8086005,90.4648506 74.4999998,92.4687368 74.5351562,95.1054688 L74.4824219,95.2109375 L71.1074219,95.2109375 C71.0722654,93.3476469 70.7031285,91.9765669 70,91.0976562 C69.2968715,90.2187456 68.1894607,89.7792969 66.6777344,89.7792969 C65.2128833,89.7792969 64.0761759,90.3710878 63.2675781,91.5546875 C62.4589803,92.7382872 62.0546875,94.4257703 62.0546875,96.6171875 L62.0546875,103.771484 C62.0546875,105.998058 62.4677693,107.703119 63.2939453,108.886719 C64.1201213,110.070318 65.2831956,110.662109 66.7832031,110.662109 C68.259773,110.662109 69.3408169,110.23145 70.0263672,109.370117 C70.7119175,108.508785 71.0664061,107.128916 71.0898438,105.230469 L74.4824219,105.230469 Z M92.7109375,90.1484375 L86.1367188,90.1484375 L86.1367188,113 L82.5683594,113 L82.5683594,90.1484375 L76.0292969,90.1484375 L76.0292969,87.40625 L92.7109375,87.40625 L92.7109375,90.1484375 Z M95.7871094,113 L95.7871094,87.40625 L102.923828,87.40625 C105.337903,87.40625 107.221673,87.980463 108.575195,89.1289062 C109.928718,90.2773495 110.605469,91.9999885 110.605469,94.296875 C110.605469,95.5156311 110.297855,96.5908157 109.682617,97.5224609 C109.06738,98.4541062 108.214849,99.1367166 107.125,99.5703125 C108.507819,99.8750015 109.571285,100.598627 110.31543,101.741211 C111.059574,102.883795 111.431641,104.222649 111.431641,105.757812 C111.431641,108.113293 110.766608,109.909174 109.436523,111.145508 C108.106439,112.381842 106.269543,113 103.925781,113 L95.7871094,113 Z M99.3554688,101.064453 L99.3554688,110.292969 L103.925781,110.292969 C105.191413,110.292969 106.166989,109.903324 106.852539,109.124023 C107.538089,108.344723 107.880859,107.228523 107.880859,105.775391 C107.880859,104.333977 107.587894,103.188481 107.001953,102.338867 C106.416013,101.489254 105.513678,101.064453 104.294922,101.064453 L99.3554688,101.064453 Z M99.3554688,98.4980469 L103.275391,98.4980469 C104.447271,98.4980469 105.367184,98.1435582 106.035156,97.4345703 C106.703128,96.7255824 107.037109,95.7031317 107.037109,94.3671875 C107.037109,92.9609305 106.68848,91.9062535 105.991211,91.203125 C105.293942,90.4999965 104.271491,90.1484375 102.923828,90.1484375 L99.3554688,90.1484375 L99.3554688,98.4980469 Z M128.570312,101.117188 L119.078125,101.117188 L119.078125,110.292969 L130.082031,110.292969 L130.082031,113 L115.509766,113 L115.509766,87.40625 L129.976562,87.40625 L129.976562,90.1484375 L119.078125,90.1484375 L119.078125,98.3925781 L128.570312,98.3925781 L128.570312,101.117188 Z M150.332031,113 L146.78125,113 L146.78125,101.714844 L136.972656,101.714844 L136.972656,113 L133.404297,113 L133.404297,87.40625 L136.972656,87.40625 L136.972656,98.9902344 L146.78125,98.9902344 L146.78125,87.40625 L150.332031,87.40625 L150.332031,113 Z M172.234375,113 L168.683594,113 L168.683594,101.714844 L158.875,101.714844 L158.875,113 L155.306641,113 L155.306641,87.40625 L158.875,87.40625 L158.875,98.9902344 L168.683594,98.9902344 L168.683594,87.40625 L172.234375,87.40625 L172.234375,113 Z M190.498047,87.40625 L194.066406,87.40625 L194.066406,113 L190.498047,113 L190.498047,94.3320312 L190.392578,94.296875 L180.707031,113 L177.138672,113 L177.138672,87.40625 L180.707031,87.40625 L180.707031,106.056641 L180.8125,106.091797 L190.498047,87.40625 Z M205.035156,101.521484 L202.591797,101.521484 L202.591797,113 L199.023438,113 L199.023438,87.40625 L202.591797,87.40625 L202.591797,98.65625 L204.71875,98.65625 L211.486328,87.40625 L215.740234,87.40625 L207.689453,99.5527344 L216.355469,113 L211.996094,113 L205.035156,101.521484 Z M230.541016,106.53125 L222.384766,106.53125 L220.521484,113 L216.900391,113 L224.775391,87.40625 L228.220703,87.40625 L236.025391,113 L232.404297,113 L230.541016,106.53125 Z M223.210938,103.701172 L229.732422,103.701172 L226.533203,92.5214844 L226.427734,92.5214844 L223.210938,103.701172 Z" id="СОБСТВЕННИКА"></path>
            </g>
            <g id="43-+-ДИРЕКТОРА" transform="translate(617.000000, 63.000000)" fill="#000000" sketch:type="MSShapeGroup">
                <path d="M36.6865234,43.6728516 L42.53125,43.6728516 L42.53125,54.2490234 L36.6865234,54.2490234 L36.6865234,69 L23.559082,69 L23.559082,54.2490234 L1.15429688,54.2490234 L0.458496094,45.9921875 L23.5126953,1.4609375 L36.6865234,1.4609375 L36.6865234,43.6728516 Z M12.4262695,43.6728516 L23.559082,43.6728516 L23.559082,20.340332 L23.2807617,20.2939453 L22.5849609,21.5463867 L12.4262695,43.6728516 Z M61.0395508,29.4321289 L67.6264648,29.4321289 C69.976737,29.4321289 71.7239526,28.5971763 72.8681641,26.9272461 C74.0123755,25.2573159 74.5844727,22.922541 74.5844727,19.9228516 C74.5844727,17.2942577 74.0123755,15.16049 72.8681641,13.5214844 C71.7239526,11.8824788 70.0849716,11.0629883 67.9511719,11.0629883 C66.2193924,11.0629883 64.7273012,11.7897063 63.4748535,13.2431641 C62.2224058,14.6966219 61.5961914,16.5984583 61.5961914,18.9487305 L48.8398438,18.9487305 L48.7470703,18.6704102 C48.5924471,13.3204485 50.3473938,8.95240951 54.0119629,5.56616211 C57.676532,2.17991471 62.1991918,0.486816406 67.5800781,0.486816406 C73.7031556,0.486816406 78.5891745,2.16445262 82.2382812,5.51977539 C85.887388,8.87509816 87.7119141,13.6142272 87.7119141,19.7373047 C87.7119141,22.7988434 86.9233477,25.636136 85.3461914,28.2492676 C83.7690351,30.8623991 81.6043432,32.8956633 78.8520508,34.3491211 C82.0063634,35.6479557 84.4184487,37.6657578 86.0883789,40.4025879 C87.7583091,43.139418 88.5932617,46.3941869 88.5932617,50.1669922 C88.5932617,56.3209943 86.6218459,61.1606269 82.6789551,64.6860352 C78.7360643,68.2114434 73.6876935,69.9741211 67.5336914,69.9741211 C62.1218805,69.9741211 57.4677929,68.311947 53.5712891,64.9875488 C49.6747852,61.6631507 47.8038729,56.9085596 47.9584961,50.7236328 L48.0512695,50.4453125 L60.8540039,50.4453125 C60.8540039,53.0429817 61.5343356,55.1922115 62.8950195,56.8930664 C64.2557034,58.5939213 65.9410707,59.4443359 67.9511719,59.4443359 C70.2395948,59.4443359 72.0563898,58.5861902 73.4016113,56.869873 C74.7468329,55.1535559 75.4194336,52.8574363 75.4194336,49.9814453 C75.4194336,46.3941878 74.762295,43.7733644 73.447998,42.1188965 C72.1337011,40.4644286 70.1932094,39.637207 67.6264648,39.637207 L61.0395508,39.637207 L61.0395508,29.4321289 Z" id="43"></path>
                <path d="M25.9902344,129.240234 L22.7558594,129.240234 L22.7558594,123 L8.2890625,123 L8.2890625,129.257812 L5.08984375,129.257812 L4.72070312,120.292969 L6.44335938,120.292969 C7.19336313,119.460933 7.8818328,118.016612 8.50878906,115.959961 C9.13574532,113.90331 9.49609328,111.029315 9.58984375,107.337891 L10.1347656,97.40625 L23.6171875,97.40625 L23.6171875,120.292969 L26.3242188,120.292969 L25.9902344,129.240234 Z M13.1757812,107.337891 C13.070312,110.29103 12.7451199,112.851552 12.2001953,115.019531 C11.6552707,117.187511 10.9609417,118.945306 10.1171875,120.292969 L20.0664062,120.292969 L20.0664062,100.148438 L13.5449219,100.148438 L13.1757812,107.337891 Z M42.8828125,97.40625 L46.4511719,97.40625 L46.4511719,123 L42.8828125,123 L42.8828125,104.332031 L42.7773438,104.296875 L33.0917969,123 L29.5234375,123 L29.5234375,97.40625 L33.0917969,97.40625 L33.0917969,116.056641 L33.1972656,116.091797 L42.8828125,97.40625 Z M54.9765625,112.910156 L54.9765625,123 L51.4082031,123 L51.4082031,97.40625 L59.8105469,97.40625 C62.2011838,97.40625 64.0761651,98.1181569 65.4355469,99.5419922 C66.7949287,100.965827 67.4746094,102.837879 67.4746094,105.158203 C67.4746094,107.490246 66.7949287,109.365227 65.4355469,110.783203 C64.0761651,112.201179 62.2011838,112.910156 59.8105469,112.910156 L54.9765625,112.910156 Z M54.9765625,110.167969 L59.8105469,110.167969 C61.1582099,110.167969 62.1777309,109.696294 62.8691406,108.75293 C63.5605503,107.809566 63.90625,106.623054 63.90625,105.193359 C63.90625,103.740227 63.56348,102.536138 62.8779297,101.581055 C62.1923794,100.625972 61.1699287,100.148438 59.8105469,100.148438 L54.9765625,100.148438 L54.9765625,110.167969 Z M84.3671875,111.117188 L74.875,111.117188 L74.875,120.292969 L85.8789062,120.292969 L85.8789062,123 L71.3066406,123 L71.3066406,97.40625 L85.7734375,97.40625 L85.7734375,100.148438 L74.875,100.148438 L74.875,108.392578 L84.3671875,108.392578 L84.3671875,111.117188 Z M95.2128906,111.521484 L92.7695312,111.521484 L92.7695312,123 L89.2011719,123 L89.2011719,97.40625 L92.7695312,97.40625 L92.7695312,108.65625 L94.8964844,108.65625 L101.664062,97.40625 L105.917969,97.40625 L97.8671875,109.552734 L106.533203,123 L102.173828,123 L95.2128906,111.521484 Z M123.900391,100.148438 L117.326172,100.148438 L117.326172,123 L113.757812,123 L113.757812,100.148438 L107.21875,100.148438 L107.21875,97.40625 L123.900391,97.40625 L123.900391,100.148438 Z M142.779297,113.736328 C142.779297,116.7715 141.994148,119.135734 140.423828,120.829102 C138.853508,122.522469 136.750013,123.369141 134.113281,123.369141 C131.511706,123.369141 129.443367,122.522469 127.908203,120.829102 C126.373039,119.135734 125.605469,116.7715 125.605469,113.736328 L125.605469,106.705078 C125.605469,103.681626 126.375969,101.314462 127.916992,99.6035156 C129.458016,97.8925696 131.523425,97.0371094 134.113281,97.0371094 C136.738294,97.0371094 138.838859,97.8925696 140.415039,99.6035156 C141.991219,101.314462 142.779297,103.681626 142.779297,106.705078 L142.779297,113.736328 Z M139.228516,106.652344 C139.228516,104.42577 138.783208,102.735357 137.892578,101.581055 C137.001949,100.426752 135.742196,99.8496094 134.113281,99.8496094 C132.507804,99.8496094 131.277348,100.426752 130.421875,101.581055 C129.566402,102.735357 129.138672,104.42577 129.138672,106.652344 L129.138672,113.736328 C129.138672,115.986339 129.569332,117.6914 130.430664,118.851562 C131.291996,120.011725 132.519523,120.591797 134.113281,120.591797 C135.753914,120.591797 137.016597,120.014654 137.901367,118.860352 C138.786137,117.706049 139.228516,115.998058 139.228516,113.736328 L139.228516,106.652344 Z M150.443359,112.910156 L150.443359,123 L146.875,123 L146.875,97.40625 L155.277344,97.40625 C157.667981,97.40625 159.542962,98.1181569 160.902344,99.5419922 C162.261726,100.965827 162.941406,102.837879 162.941406,105.158203 C162.941406,107.490246 162.261726,109.365227 160.902344,110.783203 C159.542962,112.201179 157.667981,112.910156 155.277344,112.910156 L150.443359,112.910156 Z M150.443359,110.167969 L155.277344,110.167969 C156.625007,110.167969 157.644528,109.696294 158.335938,108.75293 C159.027347,107.809566 159.373047,106.623054 159.373047,105.193359 C159.373047,103.740227 159.030277,102.536138 158.344727,101.581055 C157.659176,100.625972 156.636726,100.148438 155.277344,100.148438 L150.443359,100.148438 L150.443359,110.167969 Z M175.984375,116.53125 L167.828125,116.53125 L165.964844,123 L162.34375,123 L170.21875,97.40625 L173.664062,97.40625 L181.46875,123 L177.847656,123 L175.984375,116.53125 Z M168.654297,113.701172 L175.175781,113.701172 L171.976562,102.521484 L171.871094,102.521484 L168.654297,113.701172 Z" id="ДИРЕКТОРА"></path>
            </g>
            <g id="25-+-РУКОВОДИТЕЛЕЙ-ВЫСШЕГ" transform="translate(532.000000, 412.000000)" fill="#000000" sketch:type="MSShapeGroup">
                <path d="M99.7426758,69 L59.8500977,69 L59.8500977,60.0473633 L78.265625,36.7148438 C80.7086711,33.2512848 82.4636177,30.2361782 83.5305176,27.6694336 C84.5974174,25.102689 85.1308594,22.7679142 85.1308594,20.6650391 C85.1308594,17.7890481 84.5742243,15.4697354 83.4609375,13.7070312 C82.3476507,11.9443271 80.7395938,11.0629883 78.6367187,11.0629883 C76.4719944,11.0629883 74.8098203,12.1298721 73.6501465,14.2636719 C72.4904727,16.3974716 71.9106445,19.196109 71.9106445,22.659668 L59.0615234,22.659668 L58.96875,22.4277344 C58.8450515,16.3046569 60.576805,11.1171274 64.1640625,6.86499023 C67.75132,2.61285309 72.5754905,0.486816406 78.6367187,0.486816406 C84.8216455,0.486816406 89.645816,2.28041826 93.109375,5.86767578 C96.572934,9.4549333 98.3046875,14.3409521 98.3046875,20.5258789 C98.3046875,24.6697798 97.3383072,28.5043769 95.4055176,32.0297852 C93.472728,35.5551934 90.2488833,40.1628947 85.7338867,45.8530273 L76.9204102,58.4702148 L99.7426758,58.4702148 L99.7426758,69 Z M108.370605,39.1269531 L111.710449,1.4609375 L144.737793,1.4609375 L144.737793,12.269043 L122.472168,12.269043 L121.03418,28.1796875 C121.992843,27.2210239 123.191155,26.4247265 124.62915,25.7907715 C126.067146,25.1568165 127.574699,24.8089196 129.151855,24.7470703 C134.780139,24.6542964 139.101792,26.5947881 142.116943,30.5686035 C145.132095,34.542419 146.639648,40.1319627 146.639648,47.3374023 C146.639648,53.7697262 144.931088,59.1505317 141.513916,63.4799805 C138.096744,67.8094292 133.218456,69.9741211 126.878906,69.9741211 C121.49802,69.9741211 116.851663,68.2500986 112.939697,64.802002 C109.027731,61.3539053 107.133626,56.6766246 107.257324,50.7700195 L107.350098,50.5380859 L120.152832,49.8422852 C120.152832,52.8728993 120.771315,55.2308672 122.008301,56.9162598 C123.245286,58.6016523 124.868805,59.4443359 126.878906,59.4443359 C129.198254,59.4443359 130.883621,58.3387969 131.935059,56.1276855 C132.986496,53.9165742 133.512207,51.0174333 133.512207,47.4301758 C133.512207,43.440898 132.924648,40.2866327 131.749512,37.9672852 C130.574376,35.6479376 128.780774,34.4882812 126.368652,34.4882812 C124.544099,34.4882812 123.137049,34.983068 122.147461,35.9726562 C121.157873,36.9622445 120.477541,38.2765218 120.106445,39.9155273 L108.370605,39.1269531 Z" id="25"></path>
                <path d="M5.046875,112.910156 L5.046875,123 L1.47851562,123 L1.47851562,97.40625 L9.88085938,97.40625 C12.2714963,97.40625 14.1464776,98.1181569 15.5058594,99.5419922 C16.8652412,100.965827 17.5449219,102.837879 17.5449219,105.158203 C17.5449219,107.490246 16.8652412,109.365227 15.5058594,110.783203 C14.1464776,112.201179 12.2714963,112.910156 9.88085938,112.910156 L5.046875,112.910156 Z M5.046875,110.167969 L9.88085938,110.167969 C11.2285224,110.167969 12.2480434,109.696294 12.9394531,108.75293 C13.6308628,107.809566 13.9765625,106.623054 13.9765625,105.193359 C13.9765625,103.740227 13.6337925,102.536138 12.9482422,101.581055 C12.2626919,100.625972 11.2402412,100.148438 9.88085938,100.148438 L5.046875,100.148438 L5.046875,110.167969 Z M28.2675781,110.044922 L28.8652344,111.873047 L28.9707031,111.873047 L33.6289062,97.40625 L37.53125,97.40625 L30.0078125,118.535156 C29.3515592,120.093758 28.6396523,121.289058 27.8720703,122.121094 C27.1044883,122.953129 25.958992,123.369141 24.4355469,123.369141 C24.1894519,123.369141 23.905275,123.351563 23.5830078,123.316406 C23.2607406,123.28125 23.0410162,123.246094 22.9238281,123.210938 L22.9414062,120.574219 C23.0351567,120.609375 23.2285142,120.632812 23.5214844,120.644531 C23.8144546,120.65625 24.0488272,120.662109 24.2246094,120.662109 C24.9746131,120.662109 25.5371075,120.416018 25.9121094,119.923828 C26.2871112,119.431638 26.6328109,118.705083 26.9492188,117.744141 L27.4414062,116.373047 L19.9003906,97.40625 L23.7851562,97.40625 L28.2675781,110.044922 Z M46.8476562,111.521484 L44.4042969,111.521484 L44.4042969,123 L40.8359375,123 L40.8359375,97.40625 L44.4042969,97.40625 L44.4042969,108.65625 L46.53125,108.65625 L53.2988281,97.40625 L57.5527344,97.40625 L49.5019531,109.552734 L58.1679688,123 L53.8085938,123 L46.8476562,111.521484 Z M76.4667969,113.736328 C76.4667969,116.7715 75.6816485,119.135734 74.1113281,120.829102 C72.5410078,122.522469 70.4375132,123.369141 67.8007812,123.369141 C65.1992057,123.369141 63.1308671,122.522469 61.5957031,120.829102 C60.0605392,119.135734 59.2929688,116.7715 59.2929688,113.736328 L59.2929688,106.705078 C59.2929688,103.681626 60.0634689,101.314462 61.6044922,99.6035156 C63.1455155,97.8925696 65.2109246,97.0371094 67.8007812,97.0371094 C70.4257944,97.0371094 72.5263593,97.8925696 74.1025391,99.6035156 C75.6787188,101.314462 76.4667969,103.681626 76.4667969,106.705078 L76.4667969,113.736328 Z M72.9160156,106.652344 C72.9160156,104.42577 72.4707076,102.735357 71.5800781,101.581055 C70.6894487,100.426752 69.4296956,99.8496094 67.8007812,99.8496094 C66.1953045,99.8496094 64.964848,100.426752 64.109375,101.581055 C63.253902,102.735357 62.8261719,104.42577 62.8261719,106.652344 L62.8261719,113.736328 C62.8261719,115.986339 63.2568316,117.6914 64.1181641,118.851562 C64.9794965,120.011725 66.2070233,120.591797 67.8007812,120.591797 C69.4414145,120.591797 70.7040971,120.014654 71.5888672,118.860352 C72.4736372,117.706049 72.9160156,115.998058 72.9160156,113.736328 L72.9160156,106.652344 Z M80.5625,123 L80.5625,97.40625 L87.6992188,97.40625 C90.1132933,97.40625 91.9970635,97.980463 93.3505859,99.1289062 C94.7041083,100.277349 95.3808594,101.999989 95.3808594,104.296875 C95.3808594,105.515631 95.0732453,106.590816 94.4580078,107.522461 C93.8427704,108.454106 92.9902398,109.136717 91.9003906,109.570312 C93.28321,109.875002 94.346676,110.598627 95.0908203,111.741211 C95.8349647,112.883795 96.2070312,114.222649 96.2070312,115.757812 C96.2070312,118.113293 95.5419988,119.909174 94.2119141,121.145508 C92.8818293,122.381842 91.0449336,123 88.7011719,123 L80.5625,123 Z M84.1308594,111.064453 L84.1308594,120.292969 L88.7011719,120.292969 C89.9668032,120.292969 90.9423794,119.903324 91.6279297,119.124023 C92.31348,118.344723 92.65625,117.228523 92.65625,115.775391 C92.65625,114.333977 92.3632842,113.188481 91.7773438,112.338867 C91.1914033,111.489254 90.2890686,111.064453 89.0703125,111.064453 L84.1308594,111.064453 Z M84.1308594,108.498047 L88.0507812,108.498047 C89.2226621,108.498047 90.1425748,108.143558 90.8105469,107.43457 C91.478519,106.725582 91.8125,105.703132 91.8125,104.367188 C91.8125,102.96093 91.4638707,101.906254 90.7666016,101.203125 C90.0693325,100.499996 89.0468817,100.148438 87.6992188,100.148438 L84.1308594,100.148438 L84.1308594,108.498047 Z M116.580078,113.736328 C116.580078,116.7715 115.79493,119.135734 114.224609,120.829102 C112.654289,122.522469 110.550794,123.369141 107.914062,123.369141 C105.312487,123.369141 103.244148,122.522469 101.708984,120.829102 C100.17382,119.135734 99.40625,116.7715 99.40625,113.736328 L99.40625,106.705078 C99.40625,103.681626 100.17675,101.314462 101.717773,99.6035156 C103.258797,97.8925696 105.324206,97.0371094 107.914062,97.0371094 C110.539076,97.0371094 112.639641,97.8925696 114.21582,99.6035156 C115.792,101.314462 116.580078,103.681626 116.580078,106.705078 L116.580078,113.736328 Z M113.029297,106.652344 C113.029297,104.42577 112.583989,102.735357 111.693359,101.581055 C110.80273,100.426752 109.542977,99.8496094 107.914062,99.8496094 C106.308586,99.8496094 105.078129,100.426752 104.222656,101.581055 C103.367183,102.735357 102.939453,104.42577 102.939453,106.652344 L102.939453,113.736328 C102.939453,115.986339 103.370113,117.6914 104.231445,118.851562 C105.092778,120.011725 106.320305,120.591797 107.914062,120.591797 C109.554696,120.591797 110.817378,120.014654 111.702148,118.860352 C112.586918,117.706049 113.029297,115.998058 113.029297,113.736328 L113.029297,106.652344 Z M139.607422,129.240234 L136.373047,129.240234 L136.373047,123 L121.90625,123 L121.90625,129.257812 L118.707031,129.257812 L118.337891,120.292969 L120.060547,120.292969 C120.810551,119.460933 121.49902,118.016612 122.125977,115.959961 C122.752933,113.90331 123.113281,111.029315 123.207031,107.337891 L123.751953,97.40625 L137.234375,97.40625 L137.234375,120.292969 L139.941406,120.292969 L139.607422,129.240234 Z M126.792969,107.337891 C126.687499,110.29103 126.362307,112.851552 125.817383,115.019531 C125.272458,117.187511 124.578129,118.945306 123.734375,120.292969 L133.683594,120.292969 L133.683594,100.148438 L127.162109,100.148438 L126.792969,107.337891 Z M156.5,97.40625 L160.068359,97.40625 L160.068359,123 L156.5,123 L156.5,104.332031 L156.394531,104.296875 L146.708984,123 L143.140625,123 L143.140625,97.40625 L146.708984,97.40625 L146.708984,116.056641 L146.814453,116.091797 L156.5,97.40625 Z M179.333984,100.148438 L172.759766,100.148438 L172.759766,123 L169.191406,123 L169.191406,100.148438 L162.652344,100.148438 L162.652344,97.40625 L179.333984,97.40625 L179.333984,100.148438 Z M195.470703,111.117188 L185.978516,111.117188 L185.978516,120.292969 L196.982422,120.292969 L196.982422,123 L182.410156,123 L182.410156,97.40625 L196.876953,97.40625 L196.876953,100.148438 L185.978516,100.148438 L185.978516,108.392578 L195.470703,108.392578 L195.470703,111.117188 Z M217.144531,97.40625 L217.144531,123 L213.59375,123 L213.59375,100.148438 L206.492188,100.148438 L206.457031,109.148438 C206.445312,114.023462 205.891607,117.55077 204.795898,119.730469 C203.70019,121.910167 201.945325,123 199.53125,123 L198.634766,123 L198.634766,120.292969 L199.232422,120.292969 C200.603522,120.269531 201.555661,119.452156 202.088867,117.84082 C202.622073,116.229484 202.894531,113.332052 202.90625,109.148438 L202.941406,97.40625 L217.144531,97.40625 Z M235.179688,111.117188 L225.6875,111.117188 L225.6875,120.292969 L236.691406,120.292969 L236.691406,123 L222.119141,123 L222.119141,97.40625 L236.585938,97.40625 L236.585938,100.148438 L225.6875,100.148438 L225.6875,108.392578 L235.179688,108.392578 L235.179688,111.117188 Z M253.302734,97.40625 L256.871094,97.40625 L256.871094,123 L253.302734,123 L253.302734,104.332031 L253.197266,104.296875 L243.511719,123 L239.943359,123 L239.943359,97.40625 L243.511719,97.40625 L243.511719,116.056641 L243.617188,116.091797 L253.302734,97.40625 Z M253.320312,90.09375 L253.355469,90.1992188 C253.402344,91.5820382 252.977544,92.7070269 252.081055,93.5742188 C251.184566,94.4414106 249.974617,94.875 248.451172,94.875 C246.916008,94.875 245.7002,94.4414106 244.803711,93.5742188 C243.907222,92.7070269 243.488281,91.5820382 243.546875,90.1992188 L243.582031,90.09375 L246.236328,90.09375 C246.236328,90.8671914 246.415037,91.4999975 246.772461,91.9921875 C247.129885,92.4843775 247.689449,92.7304688 248.451172,92.7304688 C249.177738,92.7304688 249.719725,92.4843775 250.077148,91.9921875 C250.434572,91.4999975 250.613281,90.8671914 250.613281,90.09375 L253.320312,90.09375 Z M269.667969,123 L269.667969,97.40625 L276.804688,97.40625 C279.218762,97.40625 281.102532,97.980463 282.456055,99.1289062 C283.809577,100.277349 284.486328,101.999989 284.486328,104.296875 C284.486328,105.515631 284.178714,106.590816 283.563477,107.522461 C282.948239,108.454106 282.095709,109.136717 281.005859,109.570312 C282.388679,109.875002 283.452145,110.598627 284.196289,111.741211 C284.940433,112.883795 285.3125,114.222649 285.3125,115.757812 C285.3125,118.113293 284.647468,119.909174 283.317383,121.145508 C281.987298,122.381842 280.150402,123 277.806641,123 L269.667969,123 Z M273.236328,111.064453 L273.236328,120.292969 L277.806641,120.292969 C279.072272,120.292969 280.047848,119.903324 280.733398,119.124023 C281.418949,118.344723 281.761719,117.228523 281.761719,115.775391 C281.761719,114.333977 281.468753,113.188481 280.882812,112.338867 C280.296872,111.489254 279.394537,111.064453 278.175781,111.064453 L273.236328,111.064453 Z M273.236328,108.498047 L277.15625,108.498047 C278.328131,108.498047 279.248044,108.143558 279.916016,107.43457 C280.583988,106.725582 280.917969,105.703132 280.917969,104.367188 C280.917969,102.96093 280.569339,101.906254 279.87207,101.203125 C279.174801,100.499996 278.15235,100.148438 276.804688,100.148438 L273.236328,100.148438 L273.236328,108.498047 Z M292.958984,107.847656 L297.458984,107.847656 C299.873059,107.847656 301.765618,108.530267 303.136719,109.895508 C304.507819,111.260749 305.193359,113.080067 305.193359,115.353516 C305.193359,117.662121 304.50489,119.513665 303.12793,120.908203 C301.75097,122.302741 299.86134,123 297.458984,123 L289.408203,123 L289.408203,97.40625 L292.958984,97.40625 L292.958984,107.847656 Z M311.099609,123 L307.548828,123 L307.548828,97.40625 L311.099609,97.40625 L311.099609,123 Z M292.958984,110.572266 L292.958984,120.292969 L297.458984,120.292969 C298.830085,120.292969 299.867184,119.824223 300.570312,118.886719 C301.273441,117.949214 301.625,116.759773 301.625,115.318359 C301.625,113.947259 301.273441,112.813481 300.570312,111.916992 C299.867184,111.020503 298.830085,110.572266 297.458984,110.572266 L292.958984,110.572266 Z M331.244141,115.230469 L331.296875,115.335938 C331.285156,117.890638 330.605475,119.868157 329.257812,121.268555 C327.91015,122.668952 326.005872,123.369141 323.544922,123.369141 C321.037097,123.369141 319.033211,122.525399 317.533203,120.837891 C316.033196,119.150382 315.283203,116.794937 315.283203,113.771484 L315.283203,106.669922 C315.283203,103.646469 316.024407,101.285165 317.506836,99.5859375 C318.989265,97.8867103 320.966785,97.0371094 323.439453,97.0371094 C325.947278,97.0371094 327.874993,97.7226494 329.222656,99.09375 C330.570319,100.464851 331.261719,102.468737 331.296875,105.105469 L331.244141,105.210938 L327.869141,105.210938 C327.833984,103.347647 327.464847,101.976567 326.761719,101.097656 C326.05859,100.218746 324.951179,99.7792969 323.439453,99.7792969 C321.974602,99.7792969 320.837895,100.371088 320.029297,101.554688 C319.220699,102.738287 318.816406,104.42577 318.816406,106.617188 L318.816406,113.771484 C318.816406,115.998058 319.229488,117.703119 320.055664,118.886719 C320.88184,120.070318 322.044914,120.662109 323.544922,120.662109 C325.021492,120.662109 326.102536,120.23145 326.788086,119.370117 C327.473636,118.508785 327.828125,117.128916 327.851562,115.230469 L331.244141,115.230469 Z M338.714844,97.40625 L338.714844,120.292969 L345.535156,120.292969 L345.535156,97.40625 L349.085938,97.40625 L349.085938,120.292969 L355.853516,120.292969 L355.853516,97.40625 L359.421875,97.40625 L359.421875,123 L335.146484,123 L335.146484,97.40625 L338.714844,97.40625 Z M377.421875,111.117188 L367.929688,111.117188 L367.929688,120.292969 L378.933594,120.292969 L378.933594,123 L364.361328,123 L364.361328,97.40625 L378.828125,97.40625 L378.828125,100.148438 L367.929688,100.148438 L367.929688,108.392578 L377.421875,108.392578 L377.421875,111.117188 Z M395.949219,100.148438 L385.824219,100.148438 L385.824219,123 L382.255859,123 L382.255859,97.40625 L395.949219,97.40625 L395.949219,100.148438 Z M414.599609,113.736328 C414.599609,116.7715 413.814461,119.135734 412.244141,120.829102 C410.67382,122.522469 408.570326,123.369141 405.933594,123.369141 C403.332018,123.369141 401.26368,122.522469 399.728516,120.829102 C398.193352,119.135734 397.425781,116.7715 397.425781,113.736328 L397.425781,106.705078 C397.425781,103.681626 398.196281,101.314462 399.737305,99.6035156 C401.278328,97.8925696 403.343737,97.0371094 405.933594,97.0371094 C408.558607,97.0371094 410.659172,97.8925696 412.235352,99.6035156 C413.811531,101.314462 414.599609,103.681626 414.599609,106.705078 L414.599609,113.736328 Z M411.048828,106.652344 C411.048828,104.42577 410.60352,102.735357 409.712891,101.581055 C408.822261,100.426752 407.562508,99.8496094 405.933594,99.8496094 C404.328117,99.8496094 403.097661,100.426752 402.242188,101.581055 C401.386714,102.735357 400.958984,104.42577 400.958984,106.652344 L400.958984,113.736328 C400.958984,115.986339 401.389644,117.6914 402.250977,118.851562 C403.112309,120.011725 404.339836,120.591797 405.933594,120.591797 C407.574227,120.591797 408.83691,120.014654 409.72168,118.860352 C410.60645,117.706049 411.048828,115.998058 411.048828,113.736328 L411.048828,106.652344 Z M8.36914062,158.044922 L8.96679688,159.873047 L9.07226562,159.873047 L13.7304688,145.40625 L17.6328125,145.40625 L10.109375,166.535156 C9.45312172,168.093758 8.74121478,169.289058 7.97363281,170.121094 C7.20605085,170.953129 6.06055449,171.369141 4.53710938,171.369141 C4.29101439,171.369141 4.00683755,171.351563 3.68457031,171.316406 C3.36230308,171.28125 3.14257871,171.246094 3.02539062,171.210938 L3.04296875,168.574219 C3.13671922,168.609375 3.33007666,168.632812 3.62304688,168.644531 C3.91601709,168.65625 4.15038975,168.662109 4.32617188,168.662109 C5.07617563,168.662109 5.63867,168.416018 6.01367188,167.923828 C6.38867375,167.431638 6.73437342,166.705083 7.05078125,165.744141 L7.54296875,164.373047 L0.001953125,145.40625 L3.88671875,145.40625 L8.36914062,158.044922 Z M24.5058594,160.910156 L24.5058594,171 L20.9375,171 L20.9375,145.40625 L29.3398438,145.40625 C31.7304807,145.40625 33.605462,146.118157 34.9648438,147.541992 C36.3242255,148.965827 37.0039062,150.837879 37.0039062,153.158203 C37.0039062,155.490246 36.3242255,157.365227 34.9648438,158.783203 C33.605462,160.201179 31.7304807,160.910156 29.3398438,160.910156 L24.5058594,160.910156 Z M24.5058594,158.167969 L29.3398438,158.167969 C30.6875067,158.167969 31.7070278,157.696294 32.3984375,156.75293 C33.0898472,155.809566 33.4355469,154.623054 33.4355469,153.193359 C33.4355469,151.740227 33.0927769,150.536138 32.4072266,149.581055 C31.7216763,148.625972 30.6992255,148.148438 29.3398438,148.148438 L24.5058594,148.148438 L24.5058594,158.167969 Z M57.1308594,161.736328 C57.1308594,164.7715 56.345711,167.135734 54.7753906,168.829102 C53.2050703,170.522469 51.1015757,171.369141 48.4648438,171.369141 C45.8632682,171.369141 43.7949296,170.522469 42.2597656,168.829102 C40.7246017,167.135734 39.9570312,164.7715 39.9570312,161.736328 L39.9570312,154.705078 C39.9570312,151.681626 40.7275314,149.314462 42.2685547,147.603516 C43.809578,145.89257 45.8749871,145.037109 48.4648438,145.037109 C51.0898569,145.037109 53.1904218,145.89257 54.7666016,147.603516 C56.3427813,149.314462 57.1308594,151.681626 57.1308594,154.705078 L57.1308594,161.736328 Z M53.5800781,154.652344 C53.5800781,152.42577 53.1347701,150.735357 52.2441406,149.581055 C51.3535112,148.426752 50.0937581,147.849609 48.4648438,147.849609 C46.859367,147.849609 45.6289105,148.426752 44.7734375,149.581055 C43.9179645,150.735357 43.4902344,152.42577 43.4902344,154.652344 L43.4902344,161.736328 C43.4902344,163.986339 43.9208941,165.6914 44.7822266,166.851562 C45.643559,168.011725 46.8710858,168.591797 48.4648438,168.591797 C50.105477,168.591797 51.3681596,168.014654 52.2529297,166.860352 C53.1376997,165.706049 53.5800781,163.998058 53.5800781,161.736328 L53.5800781,154.652344 Z M61.2265625,171 L61.2265625,145.40625 L68.3632812,145.40625 C70.7773558,145.40625 72.661126,145.980463 74.0146484,147.128906 C75.3681708,148.277349 76.0449219,149.999989 76.0449219,152.296875 C76.0449219,153.515631 75.7373078,154.590816 75.1220703,155.522461 C74.5068329,156.454106 73.6543023,157.136717 72.5644531,157.570312 C73.9472725,157.875002 75.0107385,158.598627 75.7548828,159.741211 C76.4990272,160.883795 76.8710938,162.222649 76.8710938,163.757812 C76.8710938,166.113293 76.2060613,167.909174 74.8759766,169.145508 C73.5458918,170.381842 71.7089961,171 69.3652344,171 L61.2265625,171 Z M64.7949219,159.064453 L64.7949219,168.292969 L69.3652344,168.292969 C70.6308657,168.292969 71.6064419,167.903324 72.2919922,167.124023 C72.9775425,166.344723 73.3203125,165.228523 73.3203125,163.775391 C73.3203125,162.333977 73.0273467,161.188481 72.4414062,160.338867 C71.8554658,159.489254 70.9531311,159.064453 69.734375,159.064453 L64.7949219,159.064453 Z M64.7949219,156.498047 L68.7148438,156.498047 C69.8867246,156.498047 70.8066373,156.143558 71.4746094,155.43457 C72.1425815,154.725582 72.4765625,153.703132 72.4765625,152.367188 C72.4765625,150.96093 72.1279332,149.906254 71.4306641,149.203125 C70.733395,148.499996 69.7109442,148.148438 68.3632812,148.148438 L64.7949219,148.148438 L64.7949219,156.498047 Z M97.8769531,171 L94.3261719,171 L94.3261719,159.714844 L84.5175781,159.714844 L84.5175781,171 L80.9492188,171 L80.9492188,145.40625 L84.5175781,145.40625 L84.5175781,156.990234 L94.3261719,156.990234 L94.3261719,145.40625 L97.8769531,145.40625 L97.8769531,171 Z M104.908203,171 L101.076172,171 L105.998047,159.873047 C104.720697,159.228512 103.75391,158.343756 103.097656,157.21875 C102.441403,156.093744 102.113281,154.740242 102.113281,153.158203 C102.113281,150.697253 102.801751,148.790046 104.178711,147.436523 C105.555671,146.083001 107.462878,145.40625 109.900391,145.40625 L117.107422,145.40625 L117.107422,171 L113.539062,171 L113.539062,161.015625 L109.232422,161.015625 L104.908203,171 Z M113.539062,148.148438 L109.900391,148.148438 C108.505852,148.148438 107.454105,148.590816 106.745117,149.475586 C106.036129,150.360356 105.681641,151.605461 105.681641,153.210938 C105.681641,154.746101 106.039059,155.985347 106.753906,156.928711 C107.468754,157.872075 108.499993,158.34375 109.847656,158.34375 L113.539062,158.34375 L113.539062,148.148438 Z" id="РУКОВОДИТЕЛЕЙ-ВЫСШЕГ"></path>
            </g>
            <g id="Oval-5-+-avatar6" transform="translate(347.000000, 181.000000)">
                <mask id="mask-8" sketch:name="Oval 5" fill="white">
                    <use xlink:href="#path-7"></use>
                </mask>
                <use id="Oval-5" fill="#FFFFFF" sketch:type="MSShapeGroup" xlink:href="#path-7"></use>
                <g id="avatar6" mask="url(#mask-8)">
                    <g transform="translate(22.000000, 14.000000)" id="Group">
                        <g>
                            <path d="M38.8939056,57.9596047 C39.3694787,60.8898261 40.4935606,62.7347803 41.5960255,63.8960162 C44.2332945,81.5099026 58.9112098,97.8648791 72.3245329,97.8648791 C87.9535944,97.8648791 102.19917,80.1641713 104.966141,63.9285742 C106.090223,62.778191 107.225113,60.9115314 107.722303,57.9596047 C108.619407,54.6603924 109.754298,48.919329 107.74392,46.2387191 C107.635836,46.108487 107.516942,45.9782549 107.419666,45.8480229 C109.31115,38.9131656 111.699824,24.5984914 103.150317,14.8310867 C102.393723,13.8543462 97.5947581,8.10243011 87.3483195,5.07453466 L82.4628867,3.38151785 C74.4105695,0.885403321 69.3305841,0.321064384 69.125223,0.29935904 C68.7685431,0.266801025 68.3794379,0.29935904 68.022758,0.397033087 C67.7417376,0.47300179 66.7905914,0.733465915 66.0339978,0.624939196 C64.1100884,0.3536224 61.2242244,1.34121554 60.6946089,1.53656363 C60.0352916,1.79702776 44.4278472,8.08072477 39.6829246,22.6884211 C39.2505854,23.882215 37.3591015,30.0899433 39.8666688,45.3053893 C39.4991805,45.5550007 39.1641176,45.8805809 38.8722887,46.2604244 C36.851103,48.9301817 37.9968018,54.6603924 38.8939056,57.9596047 L38.8939056,57.9596047 Z M45.0223135,24.7721341 C45.054739,24.6961654 45.0763559,24.6201967 45.1087814,24.5333753 C48.9674086,12.4977622 62.6617522,6.94119422 62.74822,6.89778354 C63.3859203,6.65902476 64.59647,6.31173926 65.2449788,6.31173926 C66.5960387,6.49623468 68.1416513,6.2574759 68.9847127,6.0621278 C70.3573896,6.2574759 74.6375475,6.96289957 80.6902961,8.82955913 L85.6081543,10.5225759 C94.7413195,13.2357439 98.6107552,18.3039417 98.6323722,18.3473524 C98.6864146,18.4233211 98.7512654,18.4992898 98.8161163,18.5644058 C106.727923,27.5287128 102.642318,42.3426099 101.20479,46.6619733 C100.869727,47.6821244 101.118322,48.789097 101.864108,49.5596367 C102.231596,49.9503328 102.685552,50.210797 103.182742,50.3518817 C103.193551,51.7518764 102.804445,54.3348123 102.177553,56.5813154 C102.145128,56.6898421 102.123511,56.7983688 102.101894,56.9068955 C101.864108,58.4913856 101.334492,59.6417688 100.610324,60.1735497 C99.9942406,60.629362 99.5835184,61.3130803 99.486242,62.0727673 C97.5731412,75.6820178 85.0353049,92.1346684 72.3353414,92.1346684 C61.6565636,92.1346684 48.9349831,76.9843385 47.129967,62.1270307 C47.0326907,61.356491 46.632777,60.6510673 46.0058852,60.1844024 C45.281717,59.6417688 44.7521015,58.4696803 44.5035065,56.9068955 C44.492698,56.7983688 44.4602726,56.6789894 44.4386556,56.5704627 C43.8549977,54.4867497 43.476701,52.0883092 43.4442755,50.6449038 C43.9846995,50.5906405 44.514315,50.4061451 44.9682711,50.0480069 C45.822141,49.3859939 46.2220548,48.3115794 46.0275021,47.2480175 C42.8930431,30.730251 45.0223135,24.7721341 45.0223135,24.7721341 L45.0223135,24.7721341 Z" id="Shape" fill="#000000" sketch:type="MSShapeGroup"></path>
                            <path d="M133.12223,110.747001 C133.12223,110.747001 129.933729,106.373374 122.378602,103.47571 C122.378602,103.47571 121.75171,103.280362 120.778947,102.965635 C114.066881,99.7966547 107.67907,97.7672051 107.67907,97.7672051 C106.306393,97.2788349 105.11746,96.8013173 104.014995,96.3237997 C99.4646251,94.0555913 95.6708488,91.5052134 94.8710213,89.1067729 L98.2865008,116.640001 L73.4918487,180.616502 L50.080682,117.942322 L50.5562551,89.0633623 C48.4377931,95.7269028 23.0378661,103.47571 23.0378661,103.47571 C15.4827389,106.384227 12.2942374,110.747001 12.2942374,110.747001 C1.12907802,127.384147 -0.189556485,164.380905 -0.189556485,164.380905 C-0.0382377707,172.835136 3.59341136,173.725056 3.59341136,173.725056 C29.2635503,185.218035 69.5683706,187.26919 69.5683706,187.26919 C71.740875,187.312601 73.7728692,187.204074 75.7832464,187.073842 L75.8372888,187.290895 C75.8372888,187.290895 116.142109,185.23974 141.812248,173.746761 C141.812248,173.746761 145.454706,172.856842 145.595216,164.40261 C145.595216,164.391758 144.28739,127.373294 133.12223,110.747001 L133.12223,110.747001 Z" id="Shape" fill="#000000" sketch:type="MSShapeGroup"></path>
                            <path d="M94.0063429,90.2028928 C94.2981719,89.833902 94.5900008,89.4974691 94.8710213,89.1067729 C94.8169789,88.8680142 94.8061704,88.7377821 94.8061704,88.7377821 C94.5359584,89.2587104 94.2657464,89.6928172 94.0063429,90.2028928 L94.0063429,90.2028928 Z" id="Shape" fill="#000000" sketch:type="MSShapeGroup"></path>
                            <path d="M50.6859568,89.0090989 L50.6211059,88.7486348 L50.5670635,89.0525096 C50.577872,88.9982462 50.6319144,88.9439829 50.6427229,88.8897195 C50.6427229,88.8897195 50.6643399,88.9331302 50.6859568,89.0090989 L50.6859568,89.0090989 Z" id="Shape" fill="#000000" sketch:type="MSShapeGroup"></path>
                            <path d="M62.7049861,100.708279 L73.7080183,117.605889 L84.7110505,100.708279 C72.5731279,105.906709 62.7049861,100.708279 62.7049861,100.708279 L62.7049861,100.708279 Z" id="Shape" fill="#000000" sketch:type="MSShapeGroup"></path>
                            <path d="M73.7080183,174.430479 L82.1170154,123.119047 L73.7080183,117.605889 L65.2882127,123.119047 L73.7080183,174.430479 Z" id="Shape" fill="#000000" sketch:type="MSShapeGroup"></path>
                        </g>
                    </g>
                </g>
            </g>
        </g>
    </g>
</svg>