<?xml version="1.0" encoding="UTF-8" standalone="no"?>
<svg width="517px" height="517px" viewBox="0 0 517 517" version="1.1" xmlns="http://www.w3.org/2000/svg" xmlns:xlink="http://www.w3.org/1999/xlink" xmlns:sketch="http://www.bohemiancoding.com/sketch/ns">
    <!-- Generator: Sketch 3.0.4 (8054) - http://www.bohemiancoding.com/sketch -->
    <title>Oval 1 +  ИТОГ: 2</title>
    <desc>Created with Sketch.</desc>
    <defs></defs>
    <g id="Page-1" stroke="none" stroke-width="1" fill="none" fill-rule="evenodd" sketch:type="MSPage">
        <g id="Oval-1-+--ИТОГ:-2" sketch:type="MSLayerGroup">
            <circle id="Oval-1" fill="#49BC91" sketch:type="MSShapeGroup" cx="258.5" cy="258.5" r="258.5"></circle>
            <path d="M230.455566,107.140625 L236.279785,107.140625 L236.279785,137 L230.455566,137 L230.455566,118.460938 L230.33252,118.44043 L221.206543,137 L215.382324,137 L215.382324,107.140625 L221.206543,107.140625 L221.206543,125.679688 L221.32959,125.700195 L230.455566,107.140625 Z M257.730957,111.816406 L251.004395,111.816406 L251.004395,137 L245.180176,137 L245.180176,111.816406 L238.494629,111.816406 L238.494629,107.140625 L257.730957,107.140625 L257.730957,111.816406 Z M280.084473,126.274414 C280.084473,129.774432 279.134287,132.508779 277.233887,134.477539 C275.333487,136.446299 272.804215,137.430664 269.645996,137.430664 C266.487777,137.430664 263.965341,136.446299 262.078613,134.477539 C260.191885,132.508779 259.248535,129.774432 259.248535,126.274414 L259.248535,117.907227 C259.248535,114.420881 260.191885,111.683115 262.078613,109.693848 C263.965341,107.70458 266.480941,106.709961 269.625488,106.709961 C272.770035,106.709961 275.299307,107.70458 277.213379,109.693848 C279.127451,111.683115 280.084473,114.420881 280.084473,117.907227 L280.084473,126.274414 Z M274.280762,117.866211 C274.280762,115.733388 273.884281,114.123541 273.091309,113.036621 C272.298336,111.949702 271.143074,111.40625 269.625488,111.40625 C268.094231,111.40625 266.945805,111.946284 266.180176,113.026367 C265.414547,114.106451 265.031738,115.719716 265.031738,117.866211 L265.031738,126.274414 C265.031738,128.434581 265.421383,130.054682 266.200684,131.134766 C266.979984,132.214849 268.12841,132.754883 269.645996,132.754883 C271.14991,132.754883 272.298336,132.214849 273.091309,131.134766 C273.884281,130.054682 274.280762,128.434581 274.280762,126.274414 L274.280762,117.866211 Z M300.715332,111.816406 L289.743652,111.816406 L289.743652,137 L283.898926,137 L283.898926,107.140625 L300.715332,107.140625 L300.715332,111.816406 Z M310.148926,137 L304.38623,137 L304.38623,131.708984 L310.148926,131.708984 L310.148926,137 Z M310.148926,120.12207 L304.38623,120.12207 L304.38623,114.831055 L310.148926,114.831055 L310.148926,120.12207 Z M63.9321289,194.204102 C65.5317463,194.204102 66.7143516,193.756352 67.4799805,192.86084 C68.2456093,191.965328 68.628418,190.717781 68.628418,189.118164 C68.628418,187.586906 68.208012,186.335942 67.3671875,185.365234 C66.526363,184.394526 65.2924886,183.90918 63.6655273,183.90918 C62.3530208,183.90918 61.2558638,184.387691 60.3740234,185.344727 C59.4921831,186.301763 59.0512695,187.532219 59.0512695,189.036133 L55.0522461,189.036133 L55.0112305,188.913086 C54.9428708,186.47948 55.7529212,184.503914 57.4414063,182.986328 C59.1298913,181.468742 61.2045775,180.709961 63.6655273,180.709961 C66.4819477,180.709961 68.7070231,181.441399 70.3408203,182.904297 C71.9746175,184.367195 72.7915039,186.452135 72.7915039,189.15918 C72.7915039,190.56739 72.418949,191.849115 71.6738281,193.004395 C70.9287072,194.159674 69.9067448,195.058591 68.6079102,195.701172 C70.08448,196.261722 71.2158164,197.140131 72.0019531,198.336426 C72.7880899,199.532721 73.1811523,201.005851 73.1811523,202.755859 C73.1811523,205.476576 72.3027432,207.602531 70.5458984,209.133789 C68.7890537,210.665047 66.4956196,211.430664 63.6655273,211.430664 C61.1909056,211.430664 59.0546965,210.699226 57.2568359,209.236328 C55.4589754,207.77343 54.5942379,205.640639 54.6625977,202.837891 L54.7036133,202.714844 L58.7026367,202.714844 C58.7026367,204.300789 59.1640579,205.62353 60.0869141,206.683105 C61.0097702,207.742681 62.2026294,208.272461 63.6655273,208.272461 C65.3335044,208.272461 66.6425734,207.773442 67.5927734,206.775391 C68.5429735,205.777339 69.0180664,204.45118 69.0180664,202.796875 C69.0180664,200.937491 68.5908246,199.566899 67.7363281,198.685059 C66.8818317,197.803218 65.6137779,197.362305 63.9321289,197.362305 L60.9584961,197.362305 L60.9584961,194.204102 L63.9321289,194.204102 Z M93.0532227,211 L88.8901367,211 L88.8901367,201.525391 L81.5073242,201.525391 L81.5073242,211 L77.3442383,211 L77.3442383,188.810547 L81.5073242,188.810547 L81.5073242,198.367188 L88.8901367,198.367188 L88.8901367,188.810547 L93.0532227,188.810547 L93.0532227,211 Z M109.213379,211 C109.062988,210.494138 108.939942,209.998538 108.844238,209.513184 C108.748535,209.02783 108.687012,208.539065 108.659668,208.046875 C108.044431,209.044927 107.271977,209.858395 106.342285,210.487305 C105.412593,211.116214 104.380377,211.430664 103.245605,211.430664 C101.372549,211.430664 99.9062553,210.839361 98.8466797,209.656738 C97.7871041,208.474115 97.2573242,206.891611 97.2573242,204.90918 C97.2573242,202.790028 97.9785084,201.125494 99.4208984,199.915527 C100.863288,198.70556 102.890124,198.100586 105.501465,198.100586 L108.598145,198.100586 L108.598145,195.824219 C108.598145,194.470696 108.297366,193.414555 107.695801,192.655762 C107.094235,191.896969 106.239752,191.517578 105.132324,191.517578 C104.134272,191.517578 103.331058,191.859372 102.722656,192.542969 C102.114255,193.226566 101.810059,194.08105 101.810059,195.106445 L97.8520508,195.085938 L97.7905273,194.962891 C97.7221676,193.253898 98.4057545,191.732917 99.8413086,190.399902 C101.276863,189.066888 103.129383,188.400391 105.398926,188.400391 C107.586437,188.400391 109.360345,189.04638 110.720703,190.338379 C112.081061,191.630378 112.76123,193.472644 112.76123,195.865234 L112.76123,206.160156 C112.76123,207.021489 112.812499,207.852047 112.915039,208.651855 C113.017579,209.451664 113.185057,210.234371 113.41748,211 L109.213379,211 Z M104.188965,208.231445 C105.159673,208.231445 106.044918,207.944339 106.844727,207.370117 C107.644535,206.795896 108.229002,206.078129 108.598145,205.216797 L108.598145,200.68457 L105.439941,200.68457 C104.168451,200.68457 103.180668,201.091305 102.476563,201.904785 C101.772457,202.718266 101.42041,203.712885 101.42041,204.888672 C101.42041,205.886724 101.659666,206.693356 102.138184,207.308594 C102.616702,207.923831 103.300289,208.231445 104.188965,208.231445 L104.188965,208.231445 Z M133.269043,211 L129.105957,211 L129.105957,201.525391 L121.723145,201.525391 L121.723145,211 L117.560059,211 L117.560059,188.810547 L121.723145,188.810547 L121.723145,198.367188 L129.105957,198.367188 L129.105957,188.810547 L133.269043,188.810547 L133.269043,211 Z M149.777832,188.810547 L153.92041,188.810547 L153.92041,211 L149.777832,211 L149.777832,195.947266 L149.654785,195.926758 L142.354004,211 L138.190918,211 L138.190918,188.810547 L142.354004,188.810547 L142.354004,203.842773 L142.477051,203.863281 L149.777832,188.810547 Z M173.730957,188.810547 L173.730957,211 L169.588379,211 L169.588379,202.530273 L165.876465,202.530273 L161.61084,211 L157.304199,211 L161.918457,201.853516 C160.687982,201.32031 159.741214,200.517095 159.078125,199.443848 C158.415036,198.3706 158.083496,197.12989 158.083496,195.72168 C158.083496,193.698232 158.763665,192.040534 160.124023,190.748535 C161.484382,189.456537 163.333484,188.810547 165.671387,188.810547 L173.730957,188.810547 Z M162.246582,195.803711 C162.246582,196.829107 162.520017,197.707516 163.066895,198.438965 C163.613772,199.170414 164.406733,199.536133 165.445801,199.536133 L169.588379,199.536133 L169.588379,191.989258 L165.671387,191.989258 C164.550287,191.989258 163.699222,192.361813 163.118164,193.106934 C162.537106,193.852055 162.246582,194.750971 162.246582,195.803711 L162.246582,195.803711 Z M203.713379,211 L199.550293,211 L199.550293,192.030273 L192.146973,192.030273 L192.146973,211 L187.983887,211 L187.983887,188.810547 L203.713379,188.810547 L203.713379,211 Z M224.959473,201.750977 C224.959473,204.676772 224.316901,207.021476 223.031738,208.785156 C221.746576,210.548837 219.962414,211.430664 217.679199,211.430664 C216.599116,211.430664 215.64893,211.218752 214.828613,210.794922 C214.008297,210.371092 213.304202,209.749028 212.716309,208.928711 L212.716309,219.53125 L208.553223,219.53125 L208.553223,188.810547 L212.265137,188.810547 L212.531738,191.353516 C213.119632,190.410152 213.837398,189.682131 214.685059,189.169434 C215.532719,188.656736 216.517084,188.400391 217.638184,188.400391 C219.948742,188.400391 221.746576,189.371084 223.031738,191.3125 C224.316901,193.253916 224.959473,195.824203 224.959473,199.023438 L224.959473,201.750977 Z M220.796387,199.023438 C220.796387,196.849599 220.437504,195.07569 219.719727,193.70166 C219.00195,192.32763 217.932136,191.640625 216.510254,191.640625 C215.621578,191.640625 214.862796,191.893552 214.233887,192.399414 C213.604977,192.905276 213.099123,193.595699 212.716309,194.470703 L212.716309,205.688477 C213.085451,206.522465 213.58447,207.161619 214.213379,207.605957 C214.842288,208.050295 215.614742,208.272461 216.530762,208.272461 C217.966316,208.272461 219.036129,207.674322 219.740234,206.478027 C220.444339,205.281732 220.796387,203.706064 220.796387,201.750977 L220.796387,199.023438 Z M236.977051,211.430664 C234.338366,211.430664 232.226082,210.514658 230.640137,208.682617 C229.054191,206.850577 228.26123,204.505874 228.26123,201.648438 L228.26123,198.408203 C228.26123,195.509751 229.037102,193.117197 230.588867,191.230469 C232.140633,189.343741 234.112781,188.400391 236.505371,188.400391 C239.021009,188.400391 240.95556,189.258292 242.309082,190.974121 C243.662604,192.68995 244.339355,194.997056 244.339355,197.895508 L244.339355,200.766602 L232.403809,200.766602 L232.403809,201.648438 C232.403809,203.56251 232.824215,205.145013 233.665039,206.395996 C234.505864,207.646979 235.698723,208.272461 237.243652,208.272461 C238.392096,208.272461 239.376461,208.09131 240.196777,207.729004 C241.017094,207.366697 241.796383,206.836918 242.534668,206.139648 L243.847168,208.723633 C243.149899,209.516606 242.213385,210.166013 241.037598,210.671875 C239.861811,211.177737 238.508308,211.430664 236.977051,211.430664 L236.977051,211.430664 Z M236.505371,191.599609 C235.30224,191.599609 234.338383,192.184076 233.61377,193.353027 C232.889157,194.521979 232.48584,196.001944 232.403809,197.792969 L240.217285,197.792969 L240.217285,196.952148 C240.217285,195.379875 239.902835,194.094732 239.273926,193.09668 C238.645016,192.098628 237.722174,191.599609 236.505371,191.599609 L236.505371,191.599609 Z M263.821777,211 L259.658691,211 L259.658691,192.030273 L252.255371,192.030273 L252.255371,211 L248.092285,211 L248.092285,188.810547 L263.821777,188.810547 L263.821777,211 Z M267.841309,198.510742 C267.841309,195.571274 268.610344,193.151377 270.148438,191.250977 C271.686531,189.350576 273.795397,188.400391 276.475098,188.400391 C279.141127,188.400391 281.246574,189.347159 282.791504,191.240723 C284.336434,193.134287 285.108887,195.557602 285.108887,198.510742 L285.108887,201.34082 C285.108887,204.307632 284.339851,206.730948 282.801758,208.61084 C281.263664,210.490732 279.161634,211.430664 276.495605,211.430664 C273.802233,211.430664 271.686531,210.490732 270.148438,208.61084 C268.610344,206.730948 267.841309,204.307632 267.841309,201.34082 L267.841309,198.510742 Z M272.004395,201.34082 C272.004395,203.364268 272.373531,205.025384 273.111816,206.324219 C273.850101,207.623053 274.97802,208.272461 276.495605,208.272461 C277.972175,208.272461 279.083004,207.623053 279.828125,206.324219 C280.573246,205.025384 280.945801,203.364268 280.945801,201.34082 L280.945801,198.510742 C280.945801,196.514638 280.573246,194.863776 279.828125,193.558105 C279.083004,192.252435 277.965339,191.599609 276.475098,191.599609 C274.971184,191.599609 273.850101,192.249017 273.111816,193.547852 C272.373531,194.846686 272.004395,196.500967 272.004395,198.510742 L272.004395,201.34082 Z M287.590332,207.841797 C288.643072,206.624994 289.405271,205.250984 289.876953,203.719727 C290.348635,202.188469 290.63916,199.871109 290.748535,196.767578 L290.933105,188.810547 L303.914551,188.810547 L303.914551,207.841797 L306.478027,207.841797 L306.149902,217.5625 L302.335449,217.5625 L302.335449,211 L290.256348,211 L290.256348,217.5625 L286.441895,217.5625 L286.072754,207.841797 L287.590332,207.841797 Z M294.891113,196.767578 C294.781738,199.324232 294.46387,201.508292 293.9375,203.319824 C293.41113,205.131357 292.724125,206.638666 291.876465,207.841797 L299.771973,207.841797 L299.771973,192.235352 L294.993652,192.235352 L294.891113,196.767578 Z M321.161621,211 C321.01123,210.494138 320.888184,209.998538 320.79248,209.513184 C320.696777,209.02783 320.635254,208.539065 320.60791,208.046875 C319.992673,209.044927 319.220219,209.858395 318.290527,210.487305 C317.360835,211.116214 316.328619,211.430664 315.193848,211.430664 C313.320791,211.430664 311.854497,210.839361 310.794922,209.656738 C309.735346,208.474115 309.205566,206.891611 309.205566,204.90918 C309.205566,202.790028 309.926751,201.125494 311.369141,199.915527 C312.811531,198.70556 314.838366,198.100586 317.449707,198.100586 L320.546387,198.100586 L320.546387,195.824219 C320.546387,194.470696 320.245608,193.414555 319.644043,192.655762 C319.042477,191.896969 318.187994,191.517578 317.080566,191.517578 C316.082515,191.517578 315.2793,191.859372 314.670898,192.542969 C314.062497,193.226566 313.758301,194.08105 313.758301,195.106445 L309.800293,195.085938 L309.73877,194.962891 C309.67041,193.253898 310.353997,191.732917 311.789551,190.399902 C313.225105,189.066888 315.077625,188.400391 317.347168,188.400391 C319.534679,188.400391 321.308587,189.04638 322.668945,190.338379 C324.029304,191.630378 324.709473,193.472644 324.709473,195.865234 L324.709473,206.160156 C324.709473,207.021489 324.760742,207.852047 324.863281,208.651855 C324.965821,209.451664 325.1333,210.234371 325.365723,211 L321.161621,211 Z M316.137207,208.231445 C317.107915,208.231445 317.99316,207.944339 318.792969,207.370117 C319.592777,206.795896 320.177244,206.078129 320.546387,205.216797 L320.546387,200.68457 L317.388184,200.68457 C316.116693,200.68457 315.12891,201.091305 314.424805,201.904785 C313.7207,202.718266 313.368652,203.712885 313.368652,204.888672 C313.368652,205.886724 313.607908,206.693356 314.086426,207.308594 C314.564944,207.923831 315.248531,208.231445 316.137207,208.231445 L316.137207,208.231445 Z M329.713379,211 L329.713379,188.810547 L337.30127,188.810547 C339.762219,188.810547 341.683099,189.319819 343.063965,190.338379 C344.444831,191.356939 345.135254,192.871084 345.135254,194.880859 C345.135254,195.947271 344.837894,196.897457 344.243164,197.731445 C343.648435,198.565434 342.804205,199.187498 341.710449,199.597656 C343.077644,199.912111 344.126949,200.537593 344.858398,201.474121 C345.589847,202.410649 345.955566,203.50097 345.955566,204.745117 C345.955566,206.809581 345.306159,208.368159 344.007324,209.420898 C342.70849,210.473638 340.869641,211 338.490723,211 L329.713379,211 Z M333.855957,201.238281 L333.855957,207.882812 L338.490723,207.882812 C339.584478,207.882812 340.411618,207.599124 340.972168,207.031738 C341.532718,206.464353 341.812988,205.633795 341.812988,204.540039 C341.812988,203.500971 341.536136,202.690921 340.982422,202.109863 C340.428708,201.528806 339.59815,201.238281 338.490723,201.238281 L333.855957,201.238281 Z M333.855957,198.305664 L337.567871,198.305664 C338.702642,198.291992 339.557126,198.021975 340.131348,197.495605 C340.705569,196.969236 340.992676,196.2002 340.992676,195.188477 C340.992676,194.108393 340.685062,193.305178 340.069824,192.778809 C339.454587,192.252439 338.531744,191.989258 337.30127,191.989258 L333.855957,191.989258 L333.855957,198.305664 Z M361.254395,211 C361.104003,210.494138 360.980958,209.998538 360.885254,209.513184 C360.78955,209.02783 360.728027,208.539065 360.700684,208.046875 C360.085446,209.044927 359.312993,209.858395 358.383301,210.487305 C357.453609,211.116214 356.421392,211.430664 355.286621,211.430664 C353.413565,211.430664 351.947271,210.839361 350.887695,209.656738 C349.82812,208.474115 349.29834,206.891611 349.29834,204.90918 C349.29834,202.790028 350.019524,201.125494 351.461914,199.915527 C352.904304,198.70556 354.931139,198.100586 357.54248,198.100586 L360.63916,198.100586 L360.63916,195.824219 C360.63916,194.470696 360.338382,193.414555 359.736816,192.655762 C359.135251,191.896969 358.280767,191.517578 357.17334,191.517578 C356.175288,191.517578 355.372073,191.859372 354.763672,192.542969 C354.15527,193.226566 353.851074,194.08105 353.851074,195.106445 L349.893066,195.085938 L349.831543,194.962891 C349.763183,193.253898 350.44677,191.732917 351.882324,190.399902 C353.317878,189.066888 355.170399,188.400391 357.439941,188.400391 C359.627452,188.400391 361.40136,189.04638 362.761719,190.338379 C364.122077,191.630378 364.802246,193.472644 364.802246,195.865234 L364.802246,206.160156 C364.802246,207.021489 364.853515,207.852047 364.956055,208.651855 C365.058594,209.451664 365.226073,210.234371 365.458496,211 L361.254395,211 Z M356.22998,208.231445 C357.200688,208.231445 358.085934,207.944339 358.885742,207.370117 C359.685551,206.795896 360.270018,206.078129 360.63916,205.216797 L360.63916,200.68457 L357.480957,200.68457 C356.209466,200.68457 355.221683,201.091305 354.517578,201.904785 C353.813473,202.718266 353.461426,203.712885 353.461426,204.888672 C353.461426,205.886724 353.700681,206.693356 354.179199,207.308594 C354.657717,207.923831 355.341304,208.231445 356.22998,208.231445 L356.22998,208.231445 Z M383.997559,191.989258 L377.845215,191.989258 L377.845215,211 L373.661621,211 L373.661621,191.989258 L367.632324,191.989258 L367.632324,188.810547 L383.997559,188.810547 L383.997559,191.989258 Z M394.866699,211.430664 C392.228014,211.430664 390.115731,210.514658 388.529785,208.682617 C386.94384,206.850577 386.150879,204.505874 386.150879,201.648438 L386.150879,198.408203 C386.150879,195.509751 386.92675,193.117197 388.478516,191.230469 C390.030281,189.343741 392.002429,188.400391 394.39502,188.400391 C396.910657,188.400391 398.845208,189.258292 400.19873,190.974121 C401.552253,192.68995 402.229004,194.997056 402.229004,197.895508 L402.229004,200.766602 L390.293457,200.766602 L390.293457,201.648438 C390.293457,203.56251 390.713863,205.145013 391.554688,206.395996 C392.395512,207.646979 393.588371,208.272461 395.133301,208.272461 C396.281744,208.272461 397.266109,208.09131 398.086426,207.729004 C398.906742,207.366697 399.686031,206.836918 400.424316,206.139648 L401.736816,208.723633 C401.039547,209.516606 400.103033,210.166013 398.927246,210.671875 C397.751459,211.177737 396.397957,211.430664 394.866699,211.430664 L394.866699,211.430664 Z M394.39502,191.599609 C393.191889,191.599609 392.228031,192.184076 391.503418,193.353027 C390.778805,194.521979 390.375489,196.001944 390.293457,197.792969 L398.106934,197.792969 L398.106934,196.952148 C398.106934,195.379875 397.792484,194.094732 397.163574,193.09668 C396.534665,192.098628 395.611822,191.599609 394.39502,191.599609 L394.39502,191.599609 Z M421.752441,188.810547 L421.752441,211 L417.589355,211 L417.589355,192.030273 L412.052246,192.030273 L412.052246,198.428711 C412.052246,202.790061 411.529302,205.975576 410.483398,207.985352 C409.437495,209.995127 407.643079,211 405.100098,211 L404.218262,211 L404.218262,207.677734 L404.854004,207.657227 C406.043463,207.657227 406.846678,206.994147 407.263672,205.667969 C407.680666,204.34179 407.88916,201.928728 407.88916,198.428711 L407.88916,188.810547 L421.752441,188.810547 Z M434.61084,211.430664 C431.972155,211.430664 429.859871,210.514658 428.273926,208.682617 C426.68798,206.850577 425.89502,204.505874 425.89502,201.648438 L425.89502,198.408203 C425.89502,195.509751 426.670891,193.117197 428.222656,191.230469 C429.774422,189.343741 431.74657,188.400391 434.13916,188.400391 C436.654798,188.400391 438.589349,189.258292 439.942871,190.974121 C441.296393,192.68995 441.973145,194.997056 441.973145,197.895508 L441.973145,200.766602 L430.037598,200.766602 L430.037598,201.648438 C430.037598,203.56251 430.458004,205.145013 431.298828,206.395996 C432.139653,207.646979 433.332512,208.272461 434.877441,208.272461 C436.025885,208.272461 437.01025,208.09131 437.830566,207.729004 C438.650883,207.366697 439.430172,206.836918 440.168457,206.139648 L441.480957,208.723633 C440.783688,209.516606 439.847174,210.166013 438.671387,210.671875 C437.4956,211.177737 436.142098,211.430664 434.61084,211.430664 L434.61084,211.430664 Z M434.13916,191.599609 C432.936029,191.599609 431.972172,192.184076 431.247559,193.353027 C430.522946,194.521979 430.119629,196.001944 430.037598,197.792969 L437.851074,197.792969 L437.851074,196.952148 C437.851074,195.379875 437.536624,194.094732 436.907715,193.09668 C436.278805,192.098628 435.355963,191.599609 434.13916,191.599609 L434.13916,191.599609 Z M457.312988,188.810547 L461.455566,188.810547 L461.455566,211 L457.312988,211 L457.312988,195.947266 L457.189941,195.926758 L449.88916,211 L445.726074,211 L445.726074,188.810547 L449.88916,188.810547 L449.88916,203.842773 L450.012207,203.863281 L457.312988,188.810547 Z M459.281738,179.643555 L459.322754,179.766602 C459.377442,181.379891 458.881841,182.692378 457.835938,183.704102 C456.790034,184.715825 455.378427,185.22168 453.601074,185.22168 C451.81005,185.22168 450.391607,184.715825 449.345703,183.704102 C448.299799,182.692378 447.811035,181.379891 447.879395,179.766602 L447.92041,179.643555 L451.01709,179.643555 C451.01709,180.545903 451.225584,181.284177 451.642578,181.858398 C452.059572,182.43262 452.712398,182.719727 453.601074,182.719727 C454.448735,182.719727 455.081053,182.43262 455.498047,181.858398 C455.915041,181.284177 456.123535,180.545903 456.123535,179.643555 L459.281738,179.643555 Z M260.458496,232.126953 L267.472168,232.126953 L267.472168,235.695312 L260.458496,235.695312 L260.458496,245.005859 L256.397949,245.005859 L256.397949,235.695312 L249.384277,235.695312 L249.384277,232.126953 L256.397949,232.126953 L256.397949,223.267578 L260.458496,223.267578 L260.458496,232.126953 Z M128.367676,274.192383 C128.367676,277.733416 127.451669,280.491689 125.619629,282.467285 C123.787588,284.442881 121.333511,285.430664 118.257324,285.430664 C115.222153,285.430664 112.809091,284.442881 111.018066,282.467285 C109.227042,280.491689 108.331543,277.733416 108.331543,274.192383 L108.331543,265.989258 C108.331543,262.461896 109.23046,259.700205 111.02832,257.704102 C112.826181,255.707998 115.235825,254.709961 118.257324,254.709961 C121.31984,254.709961 123.770499,255.707998 125.609375,257.704102 C127.448251,259.700205 128.367676,262.461896 128.367676,265.989258 L128.367676,274.192383 Z M124.225098,265.927734 C124.225098,263.330065 123.705572,261.357917 122.666504,260.01123 C121.627436,258.664544 120.157724,257.991211 118.257324,257.991211 C116.384268,257.991211 114.948735,258.664544 113.950684,260.01123 C112.952632,261.357917 112.453613,263.330065 112.453613,265.927734 L112.453613,274.192383 C112.453613,276.817396 112.95605,278.806634 113.960938,280.160156 C114.965825,281.513679 116.39794,282.19043 118.257324,282.19043 C120.171396,282.19043 121.644526,281.517097 122.676758,280.17041 C123.70899,278.823724 124.225098,276.831068 124.225098,274.192383 L124.225098,265.927734 Z M148.424316,285 L144.26123,285 L144.26123,266.030273 L136.85791,266.030273 L136.85791,285 L132.694824,285 L132.694824,262.810547 L148.424316,262.810547 L148.424316,285 Z M157.67334,270.295898 L161.815918,270.295898 C164.181164,270.295898 166.037103,270.976067 167.383789,272.336426 C168.730475,273.696784 169.403809,275.45702 169.403809,277.617188 C169.403809,279.791026 168.730475,281.564935 167.383789,282.938965 C166.037103,284.312995 164.181164,285 161.815918,285 L153.530762,285 L153.530762,262.810547 L157.67334,262.810547 L157.67334,270.295898 Z M176.766113,285 L172.603027,285 L172.603027,262.810547 L176.766113,262.810547 L176.766113,285 Z M157.67334,273.495117 L157.67334,281.841797 L161.815918,281.841797 C162.978033,281.841797 163.839353,281.452152 164.399902,280.672852 C164.960452,279.893551 165.240723,278.90235 165.240723,277.699219 C165.240723,276.537104 164.960452,275.545903 164.399902,274.725586 C163.839353,273.905269 162.978033,273.495117 161.815918,273.495117 L157.67334,273.495117 Z M196.945801,265.989258 L190.793457,265.989258 L190.793457,285 L186.609863,285 L186.609863,265.989258 L180.580566,265.989258 L180.580566,262.810547 L196.945801,262.810547 L196.945801,265.989258 Z M217.022949,282.272461 C218.062017,282.272461 218.937008,281.872563 219.647949,281.072754 C220.35889,280.272945 220.714355,279.203132 220.714355,277.863281 L224.446777,277.863281 L224.487793,277.986328 C224.542481,280.078135 223.834968,281.84179 222.365234,283.277344 C220.8955,284.712898 219.114757,285.430664 217.022949,285.430664 C214.261217,285.430664 212.145515,284.49415 210.675781,282.621094 C209.206047,280.748038 208.471191,278.362319 208.471191,275.463867 L208.471191,272.408203 C208.471191,269.509751 209.206047,267.117197 210.675781,265.230469 C212.145515,263.343741 214.254381,262.400391 217.002441,262.400391 C219.24464,262.400391 221.066399,263.148918 222.467773,264.645996 C223.869148,266.143074 224.549317,268.081043 224.508301,270.459961 L224.446777,270.583008 L220.714355,270.583008 C220.714355,269.106438 220.37598,267.906743 219.699219,266.983887 C219.022458,266.061031 218.123541,265.599609 217.002441,265.599609 C215.416496,265.599609 214.291996,266.242181 213.628906,267.527344 C212.965817,268.812506 212.634277,270.439443 212.634277,272.408203 L212.634277,275.463867 C212.634277,277.459971 212.965817,279.093744 213.628906,280.365234 C214.291996,281.636725 215.423332,282.272461 217.022949,282.272461 L217.022949,282.272461 Z M244.031738,262.810547 L244.031738,285 L239.868652,285 L239.868652,266.030273 L234.331543,266.030273 L234.331543,272.428711 C234.331543,276.790061 233.808599,279.975576 232.762695,281.985352 C231.716792,283.995127 229.922376,285 227.379395,285 L226.497559,285 L226.497559,281.677734 L227.133301,281.657227 C228.32276,281.657227 229.125974,280.994147 229.542969,279.667969 C229.959963,278.34179 230.168457,275.928728 230.168457,272.428711 L230.168457,262.810547 L244.031738,262.810547 Z M255.105957,277.350586 L255.413574,278.806641 L255.536621,278.806641 L259.802246,262.810547 L264.334473,262.810547 L256.562012,288.445312 C256.042478,289.97657 255.338383,291.278803 254.449707,292.352051 C253.561031,293.425298 252.282723,293.961914 250.614746,293.961914 C250.272948,293.961914 249.907229,293.924317 249.517578,293.849121 C249.127928,293.773925 248.741701,293.688477 248.358887,293.592773 L248.810059,290.516602 C248.96045,290.543945 249.165526,290.571289 249.425293,290.598633 C249.68506,290.625977 249.890136,290.639648 250.040527,290.639648 C250.847172,290.639648 251.486326,290.294437 251.958008,289.604004 C252.42969,288.913571 252.795409,288.096684 253.055176,287.15332 L253.793457,284.897461 L246.943848,262.810547 L251.455566,262.810547 L255.105957,277.350586 Z M271.38916,262.810547 L271.38916,281.841797 L277.377441,281.841797 L277.377441,262.810547 L281.540527,262.810547 L281.540527,281.841797 L287.528809,281.841797 L287.528809,262.810547 L291.671387,262.810547 L291.671387,285 L267.226074,285 L267.226074,262.810547 L271.38916,262.810547 Z M307.872559,285 C307.722167,284.494138 307.599122,283.998538 307.503418,283.513184 C307.407714,283.02783 307.346192,282.539065 307.318848,282.046875 C306.70361,283.044927 305.931157,283.858395 305.001465,284.487305 C304.071773,285.116214 303.039556,285.430664 301.904785,285.430664 C300.031729,285.430664 298.565435,284.839361 297.505859,283.656738 C296.446284,282.474115 295.916504,280.891611 295.916504,278.90918 C295.916504,276.790028 296.637688,275.125494 298.080078,273.915527 C299.522468,272.70556 301.549303,272.100586 304.160645,272.100586 L307.257324,272.100586 L307.257324,269.824219 C307.257324,268.470696 306.956546,267.414555 306.35498,266.655762 C305.753415,265.896969 304.898931,265.517578 303.791504,265.517578 C302.793452,265.517578 301.990237,265.859372 301.381836,266.542969 C300.773434,267.226566 300.469238,268.08105 300.469238,269.106445 L296.51123,269.085938 L296.449707,268.962891 C296.381347,267.253898 297.064934,265.732917 298.500488,264.399902 C299.936042,263.066888 301.788563,262.400391 304.058105,262.400391 C306.245616,262.400391 308.019524,263.04638 309.379883,264.338379 C310.740241,265.630378 311.42041,267.472644 311.42041,269.865234 L311.42041,280.160156 C311.42041,281.021489 311.471679,281.852047 311.574219,282.651855 C311.676758,283.451664 311.844237,284.234371 312.07666,285 L307.872559,285 Z M302.848145,282.231445 C303.818853,282.231445 304.704098,281.944339 305.503906,281.370117 C306.303715,280.795896 306.888182,280.078129 307.257324,279.216797 L307.257324,274.68457 L304.099121,274.68457 C302.82763,274.68457 301.839847,275.091305 301.135742,275.904785 C300.431637,276.718266 300.07959,277.712885 300.07959,278.888672 C300.07959,279.886724 300.318845,280.693356 300.797363,281.308594 C301.275881,281.923831 301.959468,282.231445 302.848145,282.231445 L302.848145,282.231445 Z M330.615723,265.989258 L324.463379,265.989258 L324.463379,285 L320.279785,285 L320.279785,265.989258 L314.250488,265.989258 L314.250488,262.810547 L330.615723,262.810547 L330.615723,265.989258 Z M341.484863,285.430664 C338.846178,285.430664 336.733895,284.514658 335.147949,282.682617 C333.562004,280.850577 332.769043,278.505874 332.769043,275.648438 L332.769043,272.408203 C332.769043,269.509751 333.544914,267.117197 335.09668,265.230469 C336.648445,263.343741 338.620594,262.400391 341.013184,262.400391 C343.528821,262.400391 345.463372,263.258292 346.816895,264.974121 C348.170417,266.68995 348.847168,268.997056 348.847168,271.895508 L348.847168,274.766602 L336.911621,274.766602 L336.911621,275.648438 C336.911621,277.56251 337.332027,279.145013 338.172852,280.395996 C339.013676,281.646979 340.206535,282.272461 341.751465,282.272461 C342.899908,282.272461 343.884273,282.09131 344.70459,281.729004 C345.524906,281.366697 346.304196,280.836918 347.04248,280.139648 L348.35498,282.723633 C347.657711,283.516606 346.721197,284.166013 345.54541,284.671875 C344.369623,285.177737 343.016121,285.430664 341.484863,285.430664 L341.484863,285.430664 Z M341.013184,265.599609 C339.810053,265.599609 338.846195,266.184076 338.121582,267.353027 C337.396969,268.521979 336.993653,270.001944 336.911621,271.792969 L344.725098,271.792969 L344.725098,270.952148 C344.725098,269.379875 344.410648,268.094732 343.781738,267.09668 C343.152829,266.098628 342.229987,265.599609 341.013184,265.599609 L341.013184,265.599609 Z M368.370605,262.810547 L368.370605,285 L364.20752,285 L364.20752,266.030273 L358.67041,266.030273 L358.67041,272.428711 C358.67041,276.790061 358.147466,279.975576 357.101563,281.985352 C356.055659,283.995127 354.261243,285 351.718262,285 L350.836426,285 L350.836426,281.677734 L351.472168,281.657227 C352.661627,281.657227 353.464842,280.994147 353.881836,279.667969 C354.29883,278.34179 354.507324,275.928728 354.507324,272.428711 L354.507324,262.810547 L368.370605,262.810547 Z M381.229004,285.430664 C378.590319,285.430664 376.478035,284.514658 374.89209,282.682617 C373.306144,280.850577 372.513184,278.505874 372.513184,275.648438 L372.513184,272.408203 C372.513184,269.509751 373.289055,267.117197 374.84082,265.230469 C376.392586,263.343741 378.364734,262.400391 380.757324,262.400391 C383.272962,262.400391 385.207513,263.258292 386.561035,264.974121 C387.914558,266.68995 388.591309,268.997056 388.591309,271.895508 L388.591309,274.766602 L376.655762,274.766602 L376.655762,275.648438 C376.655762,277.56251 377.076168,279.145013 377.916992,280.395996 C378.757817,281.646979 379.950676,282.272461 381.495605,282.272461 C382.644049,282.272461 383.628414,282.09131 384.44873,281.729004 C385.269047,281.366697 386.048336,280.836918 386.786621,280.139648 L388.099121,282.723633 C387.401852,283.516606 386.465338,284.166013 385.289551,284.671875 C384.113764,285.177737 382.760262,285.430664 381.229004,285.430664 L381.229004,285.430664 Z M380.757324,265.599609 C379.554193,265.599609 378.590336,266.184076 377.865723,267.353027 C377.14111,268.521979 376.737793,270.001944 376.655762,271.792969 L384.469238,271.792969 L384.469238,270.952148 C384.469238,269.379875 384.154788,268.094732 383.525879,267.09668 C382.89697,266.098628 381.974127,265.599609 380.757324,265.599609 L380.757324,265.599609 Z M403.931152,262.810547 L408.07373,262.810547 L408.07373,285 L403.931152,285 L403.931152,269.947266 L403.808105,269.926758 L396.507324,285 L392.344238,285 L392.344238,262.810547 L396.507324,262.810547 L396.507324,277.842773 L396.630371,277.863281 L403.931152,262.810547 Z M405.899902,253.643555 L405.940918,253.766602 C405.995606,255.379891 405.500005,256.692378 404.454102,257.704102 C403.408198,258.715825 401.996591,259.22168 400.219238,259.22168 C398.428214,259.22168 397.009771,258.715825 395.963867,257.704102 C394.917964,256.692378 394.429199,255.379891 394.497559,253.766602 L394.538574,253.643555 L397.635254,253.643555 C397.635254,254.545903 397.843748,255.284177 398.260742,255.858398 C398.677736,256.43262 399.330562,256.719727 400.219238,256.719727 C401.066899,256.719727 401.699217,256.43262 402.116211,255.858398 C402.533205,255.284177 402.741699,254.545903 402.741699,253.643555 L405.899902,253.643555 Z M265.893066,305.429688 L250.881348,305.429688 L250.881348,302.148438 L265.893066,302.148438 L265.893066,305.429688 Z M265.893066,314.001953 L250.881348,314.001953 L250.881348,310.720703 L265.893066,310.720703 L265.893066,314.001953 Z M81.3022461,349.935547 L81.3637695,350.058594 C81.3500976,353.039077 80.5571368,355.346183 78.9848633,356.97998 C77.4125898,358.613778 75.1909323,359.430664 72.3198242,359.430664 C69.3940283,359.430664 67.0561611,358.446299 65.3061523,356.477539 C63.5561436,354.508779 62.6811523,351.76076 62.6811523,348.233398 L62.6811523,339.948242 C62.6811523,336.420881 63.5458898,333.666026 65.2753906,331.683594 C67.0048915,329.701162 69.3119973,328.709961 72.1967773,328.709961 C75.1225732,328.709961 77.3715742,329.509758 78.9438477,331.109375 C80.5161211,332.708992 81.3227537,335.04686 81.3637695,338.123047 L81.3022461,338.246094 L77.3647461,338.246094 C77.3237303,336.072255 76.8930705,334.472661 76.0727539,333.447266 C75.2524373,332.42187 73.960458,331.90918 72.1967773,331.90918 C70.4877844,331.90918 69.1616258,332.599602 68.2182617,333.980469 C67.2748976,335.361335 66.8032227,337.330065 66.8032227,339.886719 L66.8032227,348.233398 C66.8032227,350.831068 67.2851514,352.820306 68.2490234,354.201172 C69.2128954,355.582038 70.5698155,356.272461 72.3198242,356.272461 C74.0424891,356.272461 75.3037069,355.770025 76.1035156,354.765137 C76.9033243,353.760249 77.3168944,352.150402 77.3442383,349.935547 L81.3022461,349.935547 Z M97.0112305,336.810547 L101.153809,336.810547 L101.153809,359 L97.0112305,359 L97.0112305,343.947266 L96.8881836,343.926758 L89.5874023,359 L85.4243164,359 L85.4243164,336.810547 L89.5874023,336.810547 L89.5874023,351.842773 L89.7104492,351.863281 L97.0112305,336.810547 Z M121.76416,359 L117.601074,359 L117.601074,349.525391 L110.218262,349.525391 L110.218262,359 L106.055176,359 L106.055176,336.810547 L110.218262,336.810547 L110.218262,346.367188 L117.601074,346.367188 L117.601074,336.810547 L121.76416,336.810547 L121.76416,359 Z M134.643066,359.430664 C132.004381,359.430664 129.892098,358.514658 128.306152,356.682617 C126.720207,354.850577 125.927246,352.505874 125.927246,349.648438 L125.927246,346.408203 C125.927246,343.509751 126.703117,341.117197 128.254883,339.230469 C129.806648,337.343741 131.778797,336.400391 134.171387,336.400391 C136.687024,336.400391 138.621575,337.258292 139.975098,338.974121 C141.32862,340.68995 142.005371,342.997056 142.005371,345.895508 L142.005371,348.766602 L130.069824,348.766602 L130.069824,349.648438 C130.069824,351.56251 130.49023,353.145013 131.331055,354.395996 C132.171879,355.646979 133.364738,356.272461 134.909668,356.272461 C136.058111,356.272461 137.042476,356.09131 137.862793,355.729004 C138.68311,355.366697 139.462399,354.836918 140.200684,354.139648 L141.513184,356.723633 C140.815914,357.516606 139.8794,358.166013 138.703613,358.671875 C137.527826,359.177737 136.174324,359.430664 134.643066,359.430664 L134.643066,359.430664 Z M134.171387,339.599609 C132.968256,339.599609 132.004398,340.184076 131.279785,341.353027 C130.555172,342.521979 130.151856,344.001944 130.069824,345.792969 L137.883301,345.792969 L137.883301,344.952148 C137.883301,343.379875 137.568851,342.094732 136.939941,341.09668 C136.311032,340.098628 135.38819,339.599609 134.171387,339.599609 L134.171387,339.599609 Z M162.103027,349.750977 C162.103027,352.676772 161.460456,355.021476 160.175293,356.785156 C158.89013,358.548837 157.105968,359.430664 154.822754,359.430664 C153.74267,359.430664 152.792485,359.218752 151.972168,358.794922 C151.151851,358.371092 150.447757,357.749028 149.859863,356.928711 L149.859863,367.53125 L145.696777,367.53125 L145.696777,336.810547 L149.408691,336.810547 L149.675293,339.353516 C150.263187,338.410152 150.980953,337.682131 151.828613,337.169434 C152.676274,336.656736 153.660639,336.400391 154.781738,336.400391 C157.092297,336.400391 158.89013,337.371084 160.175293,339.3125 C161.460456,341.253916 162.103027,343.824203 162.103027,347.023438 L162.103027,349.750977 Z M157.939941,347.023438 C157.939941,344.849599 157.581058,343.07569 156.863281,341.70166 C156.145504,340.32763 155.075691,339.640625 153.653809,339.640625 C152.765132,339.640625 152.006351,339.893552 151.377441,340.399414 C150.748532,340.905276 150.242678,341.595699 149.859863,342.470703 L149.859863,353.688477 C150.229006,354.522465 150.728024,355.161619 151.356934,355.605957 C151.985843,356.050295 152.758296,356.272461 153.674316,356.272461 C155.10987,356.272461 156.179684,355.674322 156.883789,354.478027 C157.587894,353.281732 157.939941,351.706064 157.939941,349.750977 L157.939941,347.023438 Z M178.509277,340.030273 L170.306152,340.030273 L170.306152,359 L166.163574,359 L166.163574,336.810547 L178.509277,336.810547 L178.509277,340.030273 Z M192.987793,336.810547 L197.130371,336.810547 L197.130371,359 L192.987793,359 L192.987793,343.947266 L192.864746,343.926758 L185.563965,359 L181.400879,359 L181.400879,336.810547 L185.563965,336.810547 L185.563965,351.842773 L185.687012,351.863281 L192.987793,336.810547 Z M216.940918,359 L212.79834,359 L212.79834,350.960938 C212.224118,351.138673 211.646487,351.271972 211.06543,351.36084 C210.484372,351.449707 209.920413,351.494141 209.373535,351.494141 C206.80321,351.494141 204.831062,350.81739 203.457031,349.463867 C202.083001,348.110345 201.395996,345.984389 201.395996,343.085938 L201.395996,336.810547 L205.538574,336.810547 L205.538574,343.085938 C205.538574,345.00001 205.84277,346.350094 206.451172,347.13623 C207.059573,347.922367 208.033685,348.31543 209.373535,348.31543 C209.961429,348.31543 210.535642,348.264161 211.096191,348.161621 C211.656741,348.059082 212.224118,347.91211 212.79834,347.720703 L212.79834,336.810547 L216.940918,336.810547 L216.940918,359 Z M229.819824,359.430664 C227.181139,359.430664 225.068856,358.514658 223.48291,356.682617 C221.896965,354.850577 221.104004,352.505874 221.104004,349.648438 L221.104004,346.408203 C221.104004,343.509751 221.879875,341.117197 223.431641,339.230469 C224.983406,337.343741 226.955554,336.400391 229.348145,336.400391 C231.863782,336.400391 233.798333,337.258292 235.151855,338.974121 C236.505378,340.68995 237.182129,342.997056 237.182129,345.895508 L237.182129,348.766602 L225.246582,348.766602 L225.246582,349.648438 C225.246582,351.56251 225.666988,353.145013 226.507813,354.395996 C227.348637,355.646979 228.541496,356.272461 230.086426,356.272461 C231.234869,356.272461 232.219234,356.09131 233.039551,355.729004 C233.859867,355.366697 234.639156,354.836918 235.377441,354.139648 L236.689941,356.723633 C235.992672,357.516606 235.056158,358.166013 233.880371,358.671875 C232.704584,359.177737 231.351082,359.430664 229.819824,359.430664 L229.819824,359.430664 Z M229.348145,339.599609 C228.145014,339.599609 227.181156,340.184076 226.456543,341.353027 C225.73193,342.521979 225.328614,344.001944 225.246582,345.792969 L233.060059,345.792969 L233.060059,344.952148 C233.060059,343.379875 232.745609,342.094732 232.116699,341.09668 C231.48779,340.098628 230.564947,339.599609 229.348145,339.599609 L229.348145,339.599609 Z M248.584473,356.272461 C249.62354,356.272461 250.498532,355.872563 251.209473,355.072754 C251.920414,354.272945 252.275879,353.203132 252.275879,351.863281 L256.008301,351.863281 L256.049316,351.986328 C256.104004,354.078135 255.396492,355.84179 253.926758,357.277344 C252.457024,358.712898 250.67628,359.430664 248.584473,359.430664 C245.82274,359.430664 243.707039,358.49415 242.237305,356.621094 C240.767571,354.748038 240.032715,352.362319 240.032715,349.463867 L240.032715,346.408203 C240.032715,343.509751 240.767571,341.117197 242.237305,339.230469 C243.707039,337.343741 245.815904,336.400391 248.563965,336.400391 C250.806164,336.400391 252.627923,337.148918 254.029297,338.645996 C255.430671,340.143074 256.11084,342.081043 256.069824,344.459961 L256.008301,344.583008 L252.275879,344.583008 C252.275879,343.106438 251.937503,341.906743 251.260742,340.983887 C250.583981,340.061031 249.685064,339.599609 248.563965,339.599609 C246.978019,339.599609 245.853519,340.242181 245.19043,341.527344 C244.52734,342.812506 244.195801,344.439443 244.195801,346.408203 L244.195801,349.463867 C244.195801,351.459971 244.52734,353.093744 245.19043,354.365234 C245.853519,355.636725 246.984855,356.272461 248.584473,356.272461 L248.584473,356.272461 Z M266.241699,349.62793 L264.17041,349.62793 L264.17041,359 L260.007324,359 L260.007324,336.810547 L264.17041,336.810547 L264.17041,346.100586 L266.13916,346.100586 L271.245605,336.810547 L276.434082,336.810547 L269.543457,347.208008 L277.008301,359 L271.594238,359 L266.241699,349.62793 Z M291.36377,336.810547 L295.506348,336.810547 L295.506348,359 L291.36377,359 L291.36377,343.947266 L291.240723,343.926758 L283.939941,359 L279.776855,359 L279.776855,336.810547 L283.939941,336.810547 L283.939941,351.842773 L284.062988,351.863281 L291.36377,336.810547 Z M311.994629,336.810547 L316.137207,336.810547 L316.137207,359 L311.994629,359 L311.994629,343.947266 L311.871582,343.926758 L304.570801,359 L300.407715,359 L300.407715,336.810547 L304.570801,336.810547 L304.570801,351.842773 L304.693848,351.863281 L311.994629,336.810547 Z M313.963379,327.643555 L314.004395,327.766602 C314.059082,329.379891 313.563482,330.692378 312.517578,331.704102 C311.471674,332.715825 310.060067,333.22168 308.282715,333.22168 C306.49169,333.22168 305.073247,332.715825 304.027344,331.704102 C302.98144,330.692378 302.492675,329.379891 302.561035,327.766602 L302.602051,327.643555 L305.69873,327.643555 C305.69873,328.545903 305.907224,329.284177 306.324219,329.858398 C306.741213,330.43262 307.394039,330.719727 308.282715,330.719727 C309.130375,330.719727 309.762693,330.43262 310.179688,329.858398 C310.596682,329.284177 310.805176,328.545903 310.805176,327.643555 L313.963379,327.643555 Z M336.788574,339.599609 C335.77685,339.599609 334.932621,339.999508 334.255859,340.799316 C333.579098,341.599125 333.240723,342.662103 333.240723,343.988281 L329.467285,343.988281 L329.405762,343.865234 C329.351074,341.800771 330.055168,340.040535 331.518066,338.584473 C332.980964,337.128411 334.737783,336.400391 336.788574,336.400391 C339.427259,336.400391 341.49511,337.456532 342.992188,339.568848 C344.489265,341.681163 345.237793,344.336898 345.237793,347.536133 L345.237793,348.31543 C345.237793,351.528336 344.489265,354.184072 342.992188,356.282715 C341.49511,358.381358 339.434095,359.430664 336.809082,359.430664 C334.580555,359.430664 332.775886,358.685554 331.39502,357.195312 C330.014153,355.705071 329.351074,353.763684 329.405762,351.371094 L329.446777,351.268555 L333.240723,351.268555 C333.240723,352.772468 333.565426,353.982417 334.214844,354.898438 C334.864261,355.814458 335.728999,356.272461 336.809082,356.272461 C338.148932,356.272461 339.167477,355.609382 339.864746,354.283203 C340.562015,352.957025 340.958496,351.261729 341.054199,349.197266 L335.024902,349.197266 L335.024902,346.34668 L341.033691,346.34668 C340.910644,344.364248 340.50391,342.744147 339.813477,341.486328 C339.123043,340.228509 338.114753,339.599609 336.788574,339.599609 L336.788574,339.599609 Z M348.437012,348.171875 C348.437012,344.603498 349.031732,341.749522 350.221191,339.609863 C351.41065,337.470204 353.112782,336.400391 355.327637,336.400391 C355.765139,336.400391 356.185545,336.444824 356.588867,336.533691 C356.99219,336.622559 357.378416,336.742187 357.747559,336.892578 L357.747559,327.007812 L361.931152,327.007812 L361.931152,336.954102 C362.300295,336.776366 362.703611,336.639649 363.141113,336.543945 C363.578615,336.448242 364.043455,336.400391 364.535645,336.400391 C366.736827,336.400391 368.432123,337.470204 369.621582,339.609863 C370.811041,341.749522 371.405762,344.603498 371.405762,348.171875 L371.405762,348.602539 C371.405762,351.897477 370.807623,354.525869 369.611328,356.487793 C368.415033,358.449717 366.729991,359.430664 364.556152,359.430664 C364.05029,359.430664 363.578615,359.386231 363.141113,359.297363 C362.703611,359.208496 362.300295,359.082032 361.931152,358.917969 L361.931152,367.53125 L357.747559,367.53125 L357.747559,358.958984 C357.378416,359.109376 356.988772,359.225586 356.578613,359.307617 C356.168455,359.389649 355.737795,359.430664 355.286621,359.430664 C353.112782,359.430664 351.42774,358.446299 350.231445,356.477539 C349.03515,354.508779 348.437012,351.883805 348.437012,348.602539 L348.437012,348.171875 Z M367.242676,348.171875 C367.242676,345.628894 366.928226,343.564461 366.299316,341.978516 C365.670407,340.39257 364.699714,339.599609 363.387207,339.599609 C363.100096,339.599609 362.836915,339.620117 362.597656,339.661133 C362.358397,339.702149 362.136231,339.763671 361.931152,339.845703 L361.931152,356.067383 C362.12256,356.149414 362.341307,356.204101 362.587402,356.231445 C362.833497,356.258789 363.113768,356.272461 363.428223,356.272461 C364.740729,356.272461 365.704587,355.57862 366.319824,354.190918 C366.935062,352.803216 367.242676,350.940441 367.242676,348.602539 L367.242676,348.171875 Z M352.600098,348.602539 C352.600098,350.954113 352.89404,352.820306 353.481934,354.201172 C354.069827,355.582038 355.020013,356.272461 356.33252,356.272461 C356.592286,356.272461 356.841796,356.258789 357.081055,356.231445 C357.320314,356.204101 357.542479,356.15625 357.747559,356.087891 L357.747559,339.804688 C357.542479,339.75 357.323732,339.702149 357.091309,339.661133 C356.858886,339.620117 356.61963,339.599609 356.373535,339.599609 C355.047357,339.599609 354.086917,340.385734 353.492188,341.958008 C352.897458,343.530281 352.600098,345.60155 352.600098,348.171875 L352.600098,348.602539 Z M374.625488,348.171875 C374.625488,344.603498 375.220209,341.749522 376.409668,339.609863 C377.599127,337.470204 379.301258,336.400391 381.516113,336.400391 C381.953615,336.400391 382.374021,336.444824 382.777344,336.533691 C383.180666,336.622559 383.566893,336.742187 383.936035,336.892578 L383.936035,327.007812 L388.119629,327.007812 L388.119629,336.954102 C388.488771,336.776366 388.892088,336.639649 389.32959,336.543945 C389.767092,336.448242 390.231931,336.400391 390.724121,336.400391 C392.925304,336.400391 394.6206,337.470204 395.810059,339.609863 C396.999518,341.749522 397.594238,344.603498 397.594238,348.171875 L397.594238,348.602539 C397.594238,351.897477 396.9961,354.525869 395.799805,356.487793 C394.60351,358.449717 392.918468,359.430664 390.744629,359.430664 C390.238767,359.430664 389.767092,359.386231 389.32959,359.297363 C388.892088,359.208496 388.488771,359.082032 388.119629,358.917969 L388.119629,367.53125 L383.936035,367.53125 L383.936035,358.958984 C383.566893,359.109376 383.177248,359.225586 382.76709,359.307617 C382.356932,359.389649 381.926272,359.430664 381.475098,359.430664 C379.301259,359.430664 377.616217,358.446299 376.419922,356.477539 C375.223627,354.508779 374.625488,351.883805 374.625488,348.602539 L374.625488,348.171875 Z M393.431152,348.171875 C393.431152,345.628894 393.116702,343.564461 392.487793,341.978516 C391.858884,340.39257 390.88819,339.599609 389.575684,339.599609 C389.288573,339.599609 389.025392,339.620117 388.786133,339.661133 C388.546874,339.702149 388.324708,339.763671 388.119629,339.845703 L388.119629,356.067383 C388.311036,356.149414 388.529784,356.204101 388.775879,356.231445 C389.021974,356.258789 389.302245,356.272461 389.616699,356.272461 C390.929206,356.272461 391.893063,355.57862 392.508301,354.190918 C393.123538,352.803216 393.431152,350.940441 393.431152,348.602539 L393.431152,348.171875 Z M378.788574,348.602539 C378.788574,350.954113 379.082517,352.820306 379.67041,354.201172 C380.258304,355.582038 381.20849,356.272461 382.520996,356.272461 C382.780763,356.272461 383.030272,356.258789 383.269531,356.231445 C383.50879,356.204101 383.730956,356.15625 383.936035,356.087891 L383.936035,339.804688 C383.730956,339.75 383.512208,339.702149 383.279785,339.661133 C383.047362,339.620117 382.808107,339.599609 382.562012,339.599609 C381.235833,339.599609 380.275394,340.385734 379.680664,341.958008 C379.085935,343.530281 378.788574,345.60155 378.788574,348.171875 L378.788574,348.602539 Z M409.611816,359.430664 C406.973131,359.430664 404.860848,358.514658 403.274902,356.682617 C401.688957,354.850577 400.895996,352.505874 400.895996,349.648438 L400.895996,346.408203 C400.895996,343.509751 401.671867,341.117197 403.223633,339.230469 C404.775398,337.343741 406.747547,336.400391 409.140137,336.400391 C411.655774,336.400391 413.590325,337.258292 414.943848,338.974121 C416.29737,340.68995 416.974121,342.997056 416.974121,345.895508 L416.974121,348.766602 L405.038574,348.766602 L405.038574,349.648438 C405.038574,351.56251 405.45898,353.145013 406.299805,354.395996 C407.140629,355.646979 408.333488,356.272461 409.878418,356.272461 C411.026861,356.272461 412.011226,356.09131 412.831543,355.729004 C413.65186,355.366697 414.431149,354.836918 415.169434,354.139648 L416.481934,356.723633 C415.784664,357.516606 414.84815,358.166013 413.672363,358.671875 C412.496576,359.177737 411.143074,359.430664 409.611816,359.430664 L409.611816,359.430664 Z M409.140137,339.599609 C407.937006,339.599609 406.973148,340.184076 406.248535,341.353027 C405.523922,342.521979 405.120606,344.001944 405.038574,345.792969 L412.852051,345.792969 L412.852051,344.952148 C412.852051,343.379875 412.537601,342.094732 411.908691,341.09668 C411.279782,340.098628 410.35694,339.599609 409.140137,339.599609 L409.140137,339.599609 Z M427.145996,349.62793 L425.074707,349.62793 L425.074707,359 L420.911621,359 L420.911621,336.810547 L425.074707,336.810547 L425.074707,346.100586 L427.043457,346.100586 L432.149902,336.810547 L437.338379,336.810547 L430.447754,347.208008 L437.912598,359 L432.498535,359 L427.145996,349.62793 Z M455.405762,339.989258 L449.253418,339.989258 L449.253418,359 L445.069824,359 L445.069824,339.989258 L439.040527,339.989258 L439.040527,336.810547 L455.405762,336.810547 L455.405762,339.989258 Z" id="-ИТОГ:-3" fill="#FFFFFF" sketch:type="MSShapeGroup"></path>
        </g>
    </g>
</svg>