<?xml version="1.0" encoding="UTF-8" standalone="no"?>
<svg width="556px" height="553px" viewBox="0 0 556 553" version="1.1" xmlns="http://www.w3.org/2000/svg" xmlns:xlink="http://www.w3.org/1999/xlink" xmlns:sketch="http://www.bohemiancoding.com/sketch/ns">
    <!-- Generator: Sketch 3.0.4 (8054) - http://www.bohemiancoding.com/sketch -->
    <title>Oval 1 +  ИТОГ: 2</title>
    <desc>Created with Sketch.</desc>
    <defs></defs>
    <g id="Page-1" stroke="none" stroke-width="1" fill="none" fill-rule="evenodd" sketch:type="MSPage">
        <g id="Oval-1-+--ИТОГ:-2" sketch:type="MSLayerGroup">
            <g id="Oval-1-+-Oval-1" sketch:type="MSShapeGroup">
                <g id="Oval-1" fill="#E1E0DC">
                    <path d="M555.999491,277.575875 C555.709292,124.225178 431.355882,0 278,0 C124.644118,0 0.290708148,124.225178 0.000508956867,277.575875 L555.999528,277.575875 L555.999491,277.575875 Z"></path>
                </g>
                <g id="Oval-1" transform="translate(278.000000, 414.212062) rotate(-180.000000) translate(-278.000000, -414.212062) translate(0.000000, 275.424125)" fill="#F1F1F1">
                    <path d="M555.999491,277.575875 C555.709292,124.225178 431.355882,0 278,0 C124.644118,0 0.290708148,124.225178 0.000508956867,277.575875 L555.999528,277.575875 L555.999491,277.575875 Z"></path>
                </g>
            </g>
            <circle id="Oval-1" fill="#49BC91" sketch:type="MSShapeGroup" cx="278.5" cy="276.5" r="258.5"></circle>
            <path d="M250.455566,125.140625 L256.279785,125.140625 L256.279785,155 L250.455566,155 L250.455566,136.460938 L250.33252,136.44043 L241.206543,155 L235.382324,155 L235.382324,125.140625 L241.206543,125.140625 L241.206543,143.679688 L241.32959,143.700195 L250.455566,125.140625 Z M277.730957,129.816406 L271.004395,129.816406 L271.004395,155 L265.180176,155 L265.180176,129.816406 L258.494629,129.816406 L258.494629,125.140625 L277.730957,125.140625 L277.730957,129.816406 Z M300.084473,144.274414 C300.084473,147.774432 299.134287,150.508779 297.233887,152.477539 C295.333487,154.446299 292.804215,155.430664 289.645996,155.430664 C286.487777,155.430664 283.965341,154.446299 282.078613,152.477539 C280.191885,150.508779 279.248535,147.774432 279.248535,144.274414 L279.248535,135.907227 C279.248535,132.420881 280.191885,129.683115 282.078613,127.693848 C283.965341,125.70458 286.480941,124.709961 289.625488,124.709961 C292.770035,124.709961 295.299307,125.70458 297.213379,127.693848 C299.127451,129.683115 300.084473,132.420881 300.084473,135.907227 L300.084473,144.274414 Z M294.280762,135.866211 C294.280762,133.733388 293.884281,132.123541 293.091309,131.036621 C292.298336,129.949702 291.143074,129.40625 289.625488,129.40625 C288.094231,129.40625 286.945805,129.946284 286.180176,131.026367 C285.414547,132.106451 285.031738,133.719716 285.031738,135.866211 L285.031738,144.274414 C285.031738,146.434581 285.421383,148.054682 286.200684,149.134766 C286.979984,150.214849 288.12841,150.754883 289.645996,150.754883 C291.14991,150.754883 292.298336,150.214849 293.091309,149.134766 C293.884281,148.054682 294.280762,146.434581 294.280762,144.274414 L294.280762,135.866211 Z M320.715332,129.816406 L309.743652,129.816406 L309.743652,155 L303.898926,155 L303.898926,125.140625 L320.715332,125.140625 L320.715332,129.816406 Z M330.148926,155 L324.38623,155 L324.38623,149.708984 L330.148926,149.708984 L330.148926,155 Z M330.148926,138.12207 L324.38623,138.12207 L324.38623,132.831055 L330.148926,132.831055 L330.148926,138.12207 Z M83.9321289,212.204102 C85.5317463,212.204102 86.7143516,211.756352 87.4799805,210.86084 C88.2456093,209.965328 88.628418,208.717781 88.628418,207.118164 C88.628418,205.586906 88.208012,204.335942 87.3671875,203.365234 C86.526363,202.394526 85.2924886,201.90918 83.6655273,201.90918 C82.3530208,201.90918 81.2558638,202.387691 80.3740234,203.344727 C79.4921831,204.301763 79.0512695,205.532219 79.0512695,207.036133 L75.0522461,207.036133 L75.0112305,206.913086 C74.9428708,204.47948 75.7529212,202.503914 77.4414063,200.986328 C79.1298913,199.468742 81.2045775,198.709961 83.6655273,198.709961 C86.4819477,198.709961 88.7070231,199.441399 90.3408203,200.904297 C91.9746175,202.367195 92.7915039,204.452135 92.7915039,207.15918 C92.7915039,208.56739 92.418949,209.849115 91.6738281,211.004395 C90.9287072,212.159674 89.9067448,213.058591 88.6079102,213.701172 C90.08448,214.261722 91.2158164,215.140131 92.0019531,216.336426 C92.7880899,217.532721 93.1811523,219.005851 93.1811523,220.755859 C93.1811523,223.476576 92.3027432,225.602531 90.5458984,227.133789 C88.7890537,228.665047 86.4956196,229.430664 83.6655273,229.430664 C81.1909056,229.430664 79.0546965,228.699226 77.2568359,227.236328 C75.4589754,225.77343 74.5942379,223.640639 74.6625977,220.837891 L74.7036133,220.714844 L78.7026367,220.714844 C78.7026367,222.300789 79.1640579,223.62353 80.0869141,224.683105 C81.0097702,225.742681 82.2026294,226.272461 83.6655273,226.272461 C85.3335044,226.272461 86.6425734,225.773442 87.5927734,224.775391 C88.5429735,223.777339 89.0180664,222.45118 89.0180664,220.796875 C89.0180664,218.937491 88.5908246,217.566899 87.7363281,216.685059 C86.8818317,215.803218 85.6137779,215.362305 83.9321289,215.362305 L80.9584961,215.362305 L80.9584961,212.204102 L83.9321289,212.204102 Z M113.053223,229 L108.890137,229 L108.890137,219.525391 L101.507324,219.525391 L101.507324,229 L97.3442383,229 L97.3442383,206.810547 L101.507324,206.810547 L101.507324,216.367188 L108.890137,216.367188 L108.890137,206.810547 L113.053223,206.810547 L113.053223,229 Z M129.213379,229 C129.062988,228.494138 128.939942,227.998538 128.844238,227.513184 C128.748535,227.02783 128.687012,226.539065 128.659668,226.046875 C128.044431,227.044927 127.271977,227.858395 126.342285,228.487305 C125.412593,229.116214 124.380377,229.430664 123.245605,229.430664 C121.372549,229.430664 119.906255,228.839361 118.84668,227.656738 C117.787104,226.474115 117.257324,224.891611 117.257324,222.90918 C117.257324,220.790028 117.978508,219.125494 119.420898,217.915527 C120.863288,216.70556 122.890124,216.100586 125.501465,216.100586 L128.598145,216.100586 L128.598145,213.824219 C128.598145,212.470696 128.297366,211.414555 127.695801,210.655762 C127.094235,209.896969 126.239752,209.517578 125.132324,209.517578 C124.134272,209.517578 123.331058,209.859372 122.722656,210.542969 C122.114255,211.226566 121.810059,212.08105 121.810059,213.106445 L117.852051,213.085938 L117.790527,212.962891 C117.722168,211.253898 118.405755,209.732917 119.841309,208.399902 C121.276863,207.066888 123.129383,206.400391 125.398926,206.400391 C127.586437,206.400391 129.360345,207.04638 130.720703,208.338379 C132.081061,209.630378 132.76123,211.472644 132.76123,213.865234 L132.76123,224.160156 C132.76123,225.021489 132.812499,225.852047 132.915039,226.651855 C133.017579,227.451664 133.185057,228.234371 133.41748,229 L129.213379,229 Z M124.188965,226.231445 C125.159673,226.231445 126.044918,225.944339 126.844727,225.370117 C127.644535,224.795896 128.229002,224.078129 128.598145,223.216797 L128.598145,218.68457 L125.439941,218.68457 C124.168451,218.68457 123.180668,219.091305 122.476563,219.904785 C121.772457,220.718266 121.42041,221.712885 121.42041,222.888672 C121.42041,223.886724 121.659666,224.693356 122.138184,225.308594 C122.616702,225.923831 123.300289,226.231445 124.188965,226.231445 L124.188965,226.231445 Z M153.269043,229 L149.105957,229 L149.105957,219.525391 L141.723145,219.525391 L141.723145,229 L137.560059,229 L137.560059,206.810547 L141.723145,206.810547 L141.723145,216.367188 L149.105957,216.367188 L149.105957,206.810547 L153.269043,206.810547 L153.269043,229 Z M169.777832,206.810547 L173.92041,206.810547 L173.92041,229 L169.777832,229 L169.777832,213.947266 L169.654785,213.926758 L162.354004,229 L158.190918,229 L158.190918,206.810547 L162.354004,206.810547 L162.354004,221.842773 L162.477051,221.863281 L169.777832,206.810547 Z M193.730957,206.810547 L193.730957,229 L189.588379,229 L189.588379,220.530273 L185.876465,220.530273 L181.61084,229 L177.304199,229 L181.918457,219.853516 C180.687982,219.32031 179.741214,218.517095 179.078125,217.443848 C178.415036,216.3706 178.083496,215.12989 178.083496,213.72168 C178.083496,211.698232 178.763665,210.040534 180.124023,208.748535 C181.484382,207.456537 183.333484,206.810547 185.671387,206.810547 L193.730957,206.810547 Z M182.246582,213.803711 C182.246582,214.829107 182.520017,215.707516 183.066895,216.438965 C183.613772,217.170414 184.406733,217.536133 185.445801,217.536133 L189.588379,217.536133 L189.588379,209.989258 L185.671387,209.989258 C184.550287,209.989258 183.699222,210.361813 183.118164,211.106934 C182.537106,211.852055 182.246582,212.750971 182.246582,213.803711 L182.246582,213.803711 Z M223.713379,229 L219.550293,229 L219.550293,210.030273 L212.146973,210.030273 L212.146973,229 L207.983887,229 L207.983887,206.810547 L223.713379,206.810547 L223.713379,229 Z M244.959473,219.750977 C244.959473,222.676772 244.316901,225.021476 243.031738,226.785156 C241.746576,228.548837 239.962414,229.430664 237.679199,229.430664 C236.599116,229.430664 235.64893,229.218752 234.828613,228.794922 C234.008297,228.371092 233.304202,227.749028 232.716309,226.928711 L232.716309,237.53125 L228.553223,237.53125 L228.553223,206.810547 L232.265137,206.810547 L232.531738,209.353516 C233.119632,208.410152 233.837398,207.682131 234.685059,207.169434 C235.532719,206.656736 236.517084,206.400391 237.638184,206.400391 C239.948742,206.400391 241.746576,207.371084 243.031738,209.3125 C244.316901,211.253916 244.959473,213.824203 244.959473,217.023438 L244.959473,219.750977 Z M240.796387,217.023438 C240.796387,214.849599 240.437504,213.07569 239.719727,211.70166 C239.00195,210.32763 237.932136,209.640625 236.510254,209.640625 C235.621578,209.640625 234.862796,209.893552 234.233887,210.399414 C233.604977,210.905276 233.099123,211.595699 232.716309,212.470703 L232.716309,223.688477 C233.085451,224.522465 233.58447,225.161619 234.213379,225.605957 C234.842288,226.050295 235.614742,226.272461 236.530762,226.272461 C237.966316,226.272461 239.036129,225.674322 239.740234,224.478027 C240.444339,223.281732 240.796387,221.706064 240.796387,219.750977 L240.796387,217.023438 Z M256.977051,229.430664 C254.338366,229.430664 252.226082,228.514658 250.640137,226.682617 C249.054191,224.850577 248.26123,222.505874 248.26123,219.648438 L248.26123,216.408203 C248.26123,213.509751 249.037102,211.117197 250.588867,209.230469 C252.140633,207.343741 254.112781,206.400391 256.505371,206.400391 C259.021009,206.400391 260.95556,207.258292 262.309082,208.974121 C263.662604,210.68995 264.339355,212.997056 264.339355,215.895508 L264.339355,218.766602 L252.403809,218.766602 L252.403809,219.648438 C252.403809,221.56251 252.824215,223.145013 253.665039,224.395996 C254.505864,225.646979 255.698723,226.272461 257.243652,226.272461 C258.392096,226.272461 259.376461,226.09131 260.196777,225.729004 C261.017094,225.366697 261.796383,224.836918 262.534668,224.139648 L263.847168,226.723633 C263.149899,227.516606 262.213385,228.166013 261.037598,228.671875 C259.861811,229.177737 258.508308,229.430664 256.977051,229.430664 L256.977051,229.430664 Z M256.505371,209.599609 C255.30224,209.599609 254.338383,210.184076 253.61377,211.353027 C252.889157,212.521979 252.48584,214.001944 252.403809,215.792969 L260.217285,215.792969 L260.217285,214.952148 C260.217285,213.379875 259.902835,212.094732 259.273926,211.09668 C258.645016,210.098628 257.722174,209.599609 256.505371,209.599609 L256.505371,209.599609 Z M283.821777,229 L279.658691,229 L279.658691,210.030273 L272.255371,210.030273 L272.255371,229 L268.092285,229 L268.092285,206.810547 L283.821777,206.810547 L283.821777,229 Z M287.841309,216.510742 C287.841309,213.571274 288.610344,211.151377 290.148438,209.250977 C291.686531,207.350576 293.795397,206.400391 296.475098,206.400391 C299.141127,206.400391 301.246574,207.347159 302.791504,209.240723 C304.336434,211.134287 305.108887,213.557602 305.108887,216.510742 L305.108887,219.34082 C305.108887,222.307632 304.339851,224.730948 302.801758,226.61084 C301.263664,228.490732 299.161634,229.430664 296.495605,229.430664 C293.802233,229.430664 291.686531,228.490732 290.148438,226.61084 C288.610344,224.730948 287.841309,222.307632 287.841309,219.34082 L287.841309,216.510742 Z M292.004395,219.34082 C292.004395,221.364268 292.373531,223.025384 293.111816,224.324219 C293.850101,225.623053 294.97802,226.272461 296.495605,226.272461 C297.972175,226.272461 299.083004,225.623053 299.828125,224.324219 C300.573246,223.025384 300.945801,221.364268 300.945801,219.34082 L300.945801,216.510742 C300.945801,214.514638 300.573246,212.863776 299.828125,211.558105 C299.083004,210.252435 297.965339,209.599609 296.475098,209.599609 C294.971184,209.599609 293.850101,210.249017 293.111816,211.547852 C292.373531,212.846686 292.004395,214.500967 292.004395,216.510742 L292.004395,219.34082 Z M307.590332,225.841797 C308.643072,224.624994 309.405271,223.250984 309.876953,221.719727 C310.348635,220.188469 310.63916,217.871109 310.748535,214.767578 L310.933105,206.810547 L323.914551,206.810547 L323.914551,225.841797 L326.478027,225.841797 L326.149902,235.5625 L322.335449,235.5625 L322.335449,229 L310.256348,229 L310.256348,235.5625 L306.441895,235.5625 L306.072754,225.841797 L307.590332,225.841797 Z M314.891113,214.767578 C314.781738,217.324232 314.46387,219.508292 313.9375,221.319824 C313.41113,223.131357 312.724125,224.638666 311.876465,225.841797 L319.771973,225.841797 L319.771973,210.235352 L314.993652,210.235352 L314.891113,214.767578 Z M341.161621,229 C341.01123,228.494138 340.888184,227.998538 340.79248,227.513184 C340.696777,227.02783 340.635254,226.539065 340.60791,226.046875 C339.992673,227.044927 339.220219,227.858395 338.290527,228.487305 C337.360835,229.116214 336.328619,229.430664 335.193848,229.430664 C333.320791,229.430664 331.854497,228.839361 330.794922,227.656738 C329.735346,226.474115 329.205566,224.891611 329.205566,222.90918 C329.205566,220.790028 329.926751,219.125494 331.369141,217.915527 C332.811531,216.70556 334.838366,216.100586 337.449707,216.100586 L340.546387,216.100586 L340.546387,213.824219 C340.546387,212.470696 340.245608,211.414555 339.644043,210.655762 C339.042477,209.896969 338.187994,209.517578 337.080566,209.517578 C336.082515,209.517578 335.2793,209.859372 334.670898,210.542969 C334.062497,211.226566 333.758301,212.08105 333.758301,213.106445 L329.800293,213.085938 L329.73877,212.962891 C329.67041,211.253898 330.353997,209.732917 331.789551,208.399902 C333.225105,207.066888 335.077625,206.400391 337.347168,206.400391 C339.534679,206.400391 341.308587,207.04638 342.668945,208.338379 C344.029304,209.630378 344.709473,211.472644 344.709473,213.865234 L344.709473,224.160156 C344.709473,225.021489 344.760742,225.852047 344.863281,226.651855 C344.965821,227.451664 345.1333,228.234371 345.365723,229 L341.161621,229 Z M336.137207,226.231445 C337.107915,226.231445 337.99316,225.944339 338.792969,225.370117 C339.592777,224.795896 340.177244,224.078129 340.546387,223.216797 L340.546387,218.68457 L337.388184,218.68457 C336.116693,218.68457 335.12891,219.091305 334.424805,219.904785 C333.7207,220.718266 333.368652,221.712885 333.368652,222.888672 C333.368652,223.886724 333.607908,224.693356 334.086426,225.308594 C334.564944,225.923831 335.248531,226.231445 336.137207,226.231445 L336.137207,226.231445 Z M349.713379,229 L349.713379,206.810547 L357.30127,206.810547 C359.762219,206.810547 361.683099,207.319819 363.063965,208.338379 C364.444831,209.356939 365.135254,210.871084 365.135254,212.880859 C365.135254,213.947271 364.837894,214.897457 364.243164,215.731445 C363.648435,216.565434 362.804205,217.187498 361.710449,217.597656 C363.077644,217.912111 364.126949,218.537593 364.858398,219.474121 C365.589847,220.410649 365.955566,221.50097 365.955566,222.745117 C365.955566,224.809581 365.306159,226.368159 364.007324,227.420898 C362.70849,228.473638 360.869641,229 358.490723,229 L349.713379,229 Z M353.855957,219.238281 L353.855957,225.882812 L358.490723,225.882812 C359.584478,225.882812 360.411618,225.599124 360.972168,225.031738 C361.532718,224.464353 361.812988,223.633795 361.812988,222.540039 C361.812988,221.500971 361.536136,220.690921 360.982422,220.109863 C360.428708,219.528806 359.59815,219.238281 358.490723,219.238281 L353.855957,219.238281 Z M353.855957,216.305664 L357.567871,216.305664 C358.702642,216.291992 359.557126,216.021975 360.131348,215.495605 C360.705569,214.969236 360.992676,214.2002 360.992676,213.188477 C360.992676,212.108393 360.685062,211.305178 360.069824,210.778809 C359.454587,210.252439 358.531744,209.989258 357.30127,209.989258 L353.855957,209.989258 L353.855957,216.305664 Z M381.254395,229 C381.104003,228.494138 380.980958,227.998538 380.885254,227.513184 C380.78955,227.02783 380.728027,226.539065 380.700684,226.046875 C380.085446,227.044927 379.312993,227.858395 378.383301,228.487305 C377.453609,229.116214 376.421392,229.430664 375.286621,229.430664 C373.413565,229.430664 371.947271,228.839361 370.887695,227.656738 C369.82812,226.474115 369.29834,224.891611 369.29834,222.90918 C369.29834,220.790028 370.019524,219.125494 371.461914,217.915527 C372.904304,216.70556 374.931139,216.100586 377.54248,216.100586 L380.63916,216.100586 L380.63916,213.824219 C380.63916,212.470696 380.338382,211.414555 379.736816,210.655762 C379.135251,209.896969 378.280767,209.517578 377.17334,209.517578 C376.175288,209.517578 375.372073,209.859372 374.763672,210.542969 C374.15527,211.226566 373.851074,212.08105 373.851074,213.106445 L369.893066,213.085938 L369.831543,212.962891 C369.763183,211.253898 370.44677,209.732917 371.882324,208.399902 C373.317878,207.066888 375.170399,206.400391 377.439941,206.400391 C379.627452,206.400391 381.40136,207.04638 382.761719,208.338379 C384.122077,209.630378 384.802246,211.472644 384.802246,213.865234 L384.802246,224.160156 C384.802246,225.021489 384.853515,225.852047 384.956055,226.651855 C385.058594,227.451664 385.226073,228.234371 385.458496,229 L381.254395,229 Z M376.22998,226.231445 C377.200688,226.231445 378.085934,225.944339 378.885742,225.370117 C379.685551,224.795896 380.270018,224.078129 380.63916,223.216797 L380.63916,218.68457 L377.480957,218.68457 C376.209466,218.68457 375.221683,219.091305 374.517578,219.904785 C373.813473,220.718266 373.461426,221.712885 373.461426,222.888672 C373.461426,223.886724 373.700681,224.693356 374.179199,225.308594 C374.657717,225.923831 375.341304,226.231445 376.22998,226.231445 L376.22998,226.231445 Z M403.997559,209.989258 L397.845215,209.989258 L397.845215,229 L393.661621,229 L393.661621,209.989258 L387.632324,209.989258 L387.632324,206.810547 L403.997559,206.810547 L403.997559,209.989258 Z M414.866699,229.430664 C412.228014,229.430664 410.115731,228.514658 408.529785,226.682617 C406.94384,224.850577 406.150879,222.505874 406.150879,219.648438 L406.150879,216.408203 C406.150879,213.509751 406.92675,211.117197 408.478516,209.230469 C410.030281,207.343741 412.002429,206.400391 414.39502,206.400391 C416.910657,206.400391 418.845208,207.258292 420.19873,208.974121 C421.552253,210.68995 422.229004,212.997056 422.229004,215.895508 L422.229004,218.766602 L410.293457,218.766602 L410.293457,219.648438 C410.293457,221.56251 410.713863,223.145013 411.554688,224.395996 C412.395512,225.646979 413.588371,226.272461 415.133301,226.272461 C416.281744,226.272461 417.266109,226.09131 418.086426,225.729004 C418.906742,225.366697 419.686031,224.836918 420.424316,224.139648 L421.736816,226.723633 C421.039547,227.516606 420.103033,228.166013 418.927246,228.671875 C417.751459,229.177737 416.397957,229.430664 414.866699,229.430664 L414.866699,229.430664 Z M414.39502,209.599609 C413.191889,209.599609 412.228031,210.184076 411.503418,211.353027 C410.778805,212.521979 410.375489,214.001944 410.293457,215.792969 L418.106934,215.792969 L418.106934,214.952148 C418.106934,213.379875 417.792484,212.094732 417.163574,211.09668 C416.534665,210.098628 415.611822,209.599609 414.39502,209.599609 L414.39502,209.599609 Z M441.752441,206.810547 L441.752441,229 L437.589355,229 L437.589355,210.030273 L432.052246,210.030273 L432.052246,216.428711 C432.052246,220.790061 431.529302,223.975576 430.483398,225.985352 C429.437495,227.995127 427.643079,229 425.100098,229 L424.218262,229 L424.218262,225.677734 L424.854004,225.657227 C426.043463,225.657227 426.846678,224.994147 427.263672,223.667969 C427.680666,222.34179 427.88916,219.928728 427.88916,216.428711 L427.88916,206.810547 L441.752441,206.810547 Z M454.61084,229.430664 C451.972155,229.430664 449.859871,228.514658 448.273926,226.682617 C446.68798,224.850577 445.89502,222.505874 445.89502,219.648438 L445.89502,216.408203 C445.89502,213.509751 446.670891,211.117197 448.222656,209.230469 C449.774422,207.343741 451.74657,206.400391 454.13916,206.400391 C456.654798,206.400391 458.589349,207.258292 459.942871,208.974121 C461.296393,210.68995 461.973145,212.997056 461.973145,215.895508 L461.973145,218.766602 L450.037598,218.766602 L450.037598,219.648438 C450.037598,221.56251 450.458004,223.145013 451.298828,224.395996 C452.139653,225.646979 453.332512,226.272461 454.877441,226.272461 C456.025885,226.272461 457.01025,226.09131 457.830566,225.729004 C458.650883,225.366697 459.430172,224.836918 460.168457,224.139648 L461.480957,226.723633 C460.783688,227.516606 459.847174,228.166013 458.671387,228.671875 C457.4956,229.177737 456.142098,229.430664 454.61084,229.430664 L454.61084,229.430664 Z M454.13916,209.599609 C452.936029,209.599609 451.972172,210.184076 451.247559,211.353027 C450.522946,212.521979 450.119629,214.001944 450.037598,215.792969 L457.851074,215.792969 L457.851074,214.952148 C457.851074,213.379875 457.536624,212.094732 456.907715,211.09668 C456.278805,210.098628 455.355963,209.599609 454.13916,209.599609 L454.13916,209.599609 Z M477.312988,206.810547 L481.455566,206.810547 L481.455566,229 L477.312988,229 L477.312988,213.947266 L477.189941,213.926758 L469.88916,229 L465.726074,229 L465.726074,206.810547 L469.88916,206.810547 L469.88916,221.842773 L470.012207,221.863281 L477.312988,206.810547 Z M479.281738,197.643555 L479.322754,197.766602 C479.377442,199.379891 478.881841,200.692378 477.835938,201.704102 C476.790034,202.715825 475.378427,203.22168 473.601074,203.22168 C471.81005,203.22168 470.391607,202.715825 469.345703,201.704102 C468.299799,200.692378 467.811035,199.379891 467.879395,197.766602 L467.92041,197.643555 L471.01709,197.643555 C471.01709,198.545903 471.225584,199.284177 471.642578,199.858398 C472.059572,200.43262 472.712398,200.719727 473.601074,200.719727 C474.448735,200.719727 475.081053,200.43262 475.498047,199.858398 C475.915041,199.284177 476.123535,198.545903 476.123535,197.643555 L479.281738,197.643555 Z M280.458496,250.126953 L287.472168,250.126953 L287.472168,253.695312 L280.458496,253.695312 L280.458496,263.005859 L276.397949,263.005859 L276.397949,253.695312 L269.384277,253.695312 L269.384277,250.126953 L276.397949,250.126953 L276.397949,241.267578 L280.458496,241.267578 L280.458496,250.126953 Z M148.367676,292.192383 C148.367676,295.733416 147.451669,298.491689 145.619629,300.467285 C143.787588,302.442881 141.333511,303.430664 138.257324,303.430664 C135.222153,303.430664 132.809091,302.442881 131.018066,300.467285 C129.227042,298.491689 128.331543,295.733416 128.331543,292.192383 L128.331543,283.989258 C128.331543,280.461896 129.23046,277.700205 131.02832,275.704102 C132.826181,273.707998 135.235825,272.709961 138.257324,272.709961 C141.31984,272.709961 143.770499,273.707998 145.609375,275.704102 C147.448251,277.700205 148.367676,280.461896 148.367676,283.989258 L148.367676,292.192383 Z M144.225098,283.927734 C144.225098,281.330065 143.705572,279.357917 142.666504,278.01123 C141.627436,276.664544 140.157724,275.991211 138.257324,275.991211 C136.384268,275.991211 134.948735,276.664544 133.950684,278.01123 C132.952632,279.357917 132.453613,281.330065 132.453613,283.927734 L132.453613,292.192383 C132.453613,294.817396 132.95605,296.806634 133.960938,298.160156 C134.965825,299.513679 136.39794,300.19043 138.257324,300.19043 C140.171396,300.19043 141.644526,299.517097 142.676758,298.17041 C143.70899,296.823724 144.225098,294.831068 144.225098,292.192383 L144.225098,283.927734 Z M168.424316,303 L164.26123,303 L164.26123,284.030273 L156.85791,284.030273 L156.85791,303 L152.694824,303 L152.694824,280.810547 L168.424316,280.810547 L168.424316,303 Z M177.67334,288.295898 L181.815918,288.295898 C184.181164,288.295898 186.037103,288.976067 187.383789,290.336426 C188.730475,291.696784 189.403809,293.45702 189.403809,295.617188 C189.403809,297.791026 188.730475,299.564935 187.383789,300.938965 C186.037103,302.312995 184.181164,303 181.815918,303 L173.530762,303 L173.530762,280.810547 L177.67334,280.810547 L177.67334,288.295898 Z M196.766113,303 L192.603027,303 L192.603027,280.810547 L196.766113,280.810547 L196.766113,303 Z M177.67334,291.495117 L177.67334,299.841797 L181.815918,299.841797 C182.978033,299.841797 183.839353,299.452152 184.399902,298.672852 C184.960452,297.893551 185.240723,296.90235 185.240723,295.699219 C185.240723,294.537104 184.960452,293.545903 184.399902,292.725586 C183.839353,291.905269 182.978033,291.495117 181.815918,291.495117 L177.67334,291.495117 Z M216.945801,283.989258 L210.793457,283.989258 L210.793457,303 L206.609863,303 L206.609863,283.989258 L200.580566,283.989258 L200.580566,280.810547 L216.945801,280.810547 L216.945801,283.989258 Z M237.022949,300.272461 C238.062017,300.272461 238.937008,299.872563 239.647949,299.072754 C240.35889,298.272945 240.714355,297.203132 240.714355,295.863281 L244.446777,295.863281 L244.487793,295.986328 C244.542481,298.078135 243.834968,299.84179 242.365234,301.277344 C240.8955,302.712898 239.114757,303.430664 237.022949,303.430664 C234.261217,303.430664 232.145515,302.49415 230.675781,300.621094 C229.206047,298.748038 228.471191,296.362319 228.471191,293.463867 L228.471191,290.408203 C228.471191,287.509751 229.206047,285.117197 230.675781,283.230469 C232.145515,281.343741 234.254381,280.400391 237.002441,280.400391 C239.24464,280.400391 241.066399,281.148918 242.467773,282.645996 C243.869148,284.143074 244.549317,286.081043 244.508301,288.459961 L244.446777,288.583008 L240.714355,288.583008 C240.714355,287.106438 240.37598,285.906743 239.699219,284.983887 C239.022458,284.061031 238.123541,283.599609 237.002441,283.599609 C235.416496,283.599609 234.291996,284.242181 233.628906,285.527344 C232.965817,286.812506 232.634277,288.439443 232.634277,290.408203 L232.634277,293.463867 C232.634277,295.459971 232.965817,297.093744 233.628906,298.365234 C234.291996,299.636725 235.423332,300.272461 237.022949,300.272461 L237.022949,300.272461 Z M264.031738,280.810547 L264.031738,303 L259.868652,303 L259.868652,284.030273 L254.331543,284.030273 L254.331543,290.428711 C254.331543,294.790061 253.808599,297.975576 252.762695,299.985352 C251.716792,301.995127 249.922376,303 247.379395,303 L246.497559,303 L246.497559,299.677734 L247.133301,299.657227 C248.32276,299.657227 249.125974,298.994147 249.542969,297.667969 C249.959963,296.34179 250.168457,293.928728 250.168457,290.428711 L250.168457,280.810547 L264.031738,280.810547 Z M275.105957,295.350586 L275.413574,296.806641 L275.536621,296.806641 L279.802246,280.810547 L284.334473,280.810547 L276.562012,306.445312 C276.042478,307.97657 275.338383,309.278803 274.449707,310.352051 C273.561031,311.425298 272.282723,311.961914 270.614746,311.961914 C270.272948,311.961914 269.907229,311.924317 269.517578,311.849121 C269.127928,311.773925 268.741701,311.688477 268.358887,311.592773 L268.810059,308.516602 C268.96045,308.543945 269.165526,308.571289 269.425293,308.598633 C269.68506,308.625977 269.890136,308.639648 270.040527,308.639648 C270.847172,308.639648 271.486326,308.294437 271.958008,307.604004 C272.42969,306.913571 272.795409,306.096684 273.055176,305.15332 L273.793457,302.897461 L266.943848,280.810547 L271.455566,280.810547 L275.105957,295.350586 Z M291.38916,280.810547 L291.38916,299.841797 L297.377441,299.841797 L297.377441,280.810547 L301.540527,280.810547 L301.540527,299.841797 L307.528809,299.841797 L307.528809,280.810547 L311.671387,280.810547 L311.671387,303 L287.226074,303 L287.226074,280.810547 L291.38916,280.810547 Z M327.872559,303 C327.722167,302.494138 327.599122,301.998538 327.503418,301.513184 C327.407714,301.02783 327.346192,300.539065 327.318848,300.046875 C326.70361,301.044927 325.931157,301.858395 325.001465,302.487305 C324.071773,303.116214 323.039556,303.430664 321.904785,303.430664 C320.031729,303.430664 318.565435,302.839361 317.505859,301.656738 C316.446284,300.474115 315.916504,298.891611 315.916504,296.90918 C315.916504,294.790028 316.637688,293.125494 318.080078,291.915527 C319.522468,290.70556 321.549303,290.100586 324.160645,290.100586 L327.257324,290.100586 L327.257324,287.824219 C327.257324,286.470696 326.956546,285.414555 326.35498,284.655762 C325.753415,283.896969 324.898931,283.517578 323.791504,283.517578 C322.793452,283.517578 321.990237,283.859372 321.381836,284.542969 C320.773434,285.226566 320.469238,286.08105 320.469238,287.106445 L316.51123,287.085938 L316.449707,286.962891 C316.381347,285.253898 317.064934,283.732917 318.500488,282.399902 C319.936042,281.066888 321.788563,280.400391 324.058105,280.400391 C326.245616,280.400391 328.019524,281.04638 329.379883,282.338379 C330.740241,283.630378 331.42041,285.472644 331.42041,287.865234 L331.42041,298.160156 C331.42041,299.021489 331.471679,299.852047 331.574219,300.651855 C331.676758,301.451664 331.844237,302.234371 332.07666,303 L327.872559,303 Z M322.848145,300.231445 C323.818853,300.231445 324.704098,299.944339 325.503906,299.370117 C326.303715,298.795896 326.888182,298.078129 327.257324,297.216797 L327.257324,292.68457 L324.099121,292.68457 C322.82763,292.68457 321.839847,293.091305 321.135742,293.904785 C320.431637,294.718266 320.07959,295.712885 320.07959,296.888672 C320.07959,297.886724 320.318845,298.693356 320.797363,299.308594 C321.275881,299.923831 321.959468,300.231445 322.848145,300.231445 L322.848145,300.231445 Z M350.615723,283.989258 L344.463379,283.989258 L344.463379,303 L340.279785,303 L340.279785,283.989258 L334.250488,283.989258 L334.250488,280.810547 L350.615723,280.810547 L350.615723,283.989258 Z M361.484863,303.430664 C358.846178,303.430664 356.733895,302.514658 355.147949,300.682617 C353.562004,298.850577 352.769043,296.505874 352.769043,293.648438 L352.769043,290.408203 C352.769043,287.509751 353.544914,285.117197 355.09668,283.230469 C356.648445,281.343741 358.620594,280.400391 361.013184,280.400391 C363.528821,280.400391 365.463372,281.258292 366.816895,282.974121 C368.170417,284.68995 368.847168,286.997056 368.847168,289.895508 L368.847168,292.766602 L356.911621,292.766602 L356.911621,293.648438 C356.911621,295.56251 357.332027,297.145013 358.172852,298.395996 C359.013676,299.646979 360.206535,300.272461 361.751465,300.272461 C362.899908,300.272461 363.884273,300.09131 364.70459,299.729004 C365.524906,299.366697 366.304196,298.836918 367.04248,298.139648 L368.35498,300.723633 C367.657711,301.516606 366.721197,302.166013 365.54541,302.671875 C364.369623,303.177737 363.016121,303.430664 361.484863,303.430664 L361.484863,303.430664 Z M361.013184,283.599609 C359.810053,283.599609 358.846195,284.184076 358.121582,285.353027 C357.396969,286.521979 356.993653,288.001944 356.911621,289.792969 L364.725098,289.792969 L364.725098,288.952148 C364.725098,287.379875 364.410648,286.094732 363.781738,285.09668 C363.152829,284.098628 362.229987,283.599609 361.013184,283.599609 L361.013184,283.599609 Z M388.370605,280.810547 L388.370605,303 L384.20752,303 L384.20752,284.030273 L378.67041,284.030273 L378.67041,290.428711 C378.67041,294.790061 378.147466,297.975576 377.101563,299.985352 C376.055659,301.995127 374.261243,303 371.718262,303 L370.836426,303 L370.836426,299.677734 L371.472168,299.657227 C372.661627,299.657227 373.464842,298.994147 373.881836,297.667969 C374.29883,296.34179 374.507324,293.928728 374.507324,290.428711 L374.507324,280.810547 L388.370605,280.810547 Z M401.229004,303.430664 C398.590319,303.430664 396.478035,302.514658 394.89209,300.682617 C393.306144,298.850577 392.513184,296.505874 392.513184,293.648438 L392.513184,290.408203 C392.513184,287.509751 393.289055,285.117197 394.84082,283.230469 C396.392586,281.343741 398.364734,280.400391 400.757324,280.400391 C403.272962,280.400391 405.207513,281.258292 406.561035,282.974121 C407.914558,284.68995 408.591309,286.997056 408.591309,289.895508 L408.591309,292.766602 L396.655762,292.766602 L396.655762,293.648438 C396.655762,295.56251 397.076168,297.145013 397.916992,298.395996 C398.757817,299.646979 399.950676,300.272461 401.495605,300.272461 C402.644049,300.272461 403.628414,300.09131 404.44873,299.729004 C405.269047,299.366697 406.048336,298.836918 406.786621,298.139648 L408.099121,300.723633 C407.401852,301.516606 406.465338,302.166013 405.289551,302.671875 C404.113764,303.177737 402.760262,303.430664 401.229004,303.430664 L401.229004,303.430664 Z M400.757324,283.599609 C399.554193,283.599609 398.590336,284.184076 397.865723,285.353027 C397.14111,286.521979 396.737793,288.001944 396.655762,289.792969 L404.469238,289.792969 L404.469238,288.952148 C404.469238,287.379875 404.154788,286.094732 403.525879,285.09668 C402.89697,284.098628 401.974127,283.599609 400.757324,283.599609 L400.757324,283.599609 Z M423.931152,280.810547 L428.07373,280.810547 L428.07373,303 L423.931152,303 L423.931152,287.947266 L423.808105,287.926758 L416.507324,303 L412.344238,303 L412.344238,280.810547 L416.507324,280.810547 L416.507324,295.842773 L416.630371,295.863281 L423.931152,280.810547 Z M425.899902,271.643555 L425.940918,271.766602 C425.995606,273.379891 425.500005,274.692378 424.454102,275.704102 C423.408198,276.715825 421.996591,277.22168 420.219238,277.22168 C418.428214,277.22168 417.009771,276.715825 415.963867,275.704102 C414.917964,274.692378 414.429199,273.379891 414.497559,271.766602 L414.538574,271.643555 L417.635254,271.643555 C417.635254,272.545903 417.843748,273.284177 418.260742,273.858398 C418.677736,274.43262 419.330562,274.719727 420.219238,274.719727 C421.066899,274.719727 421.699217,274.43262 422.116211,273.858398 C422.533205,273.284177 422.741699,272.545903 422.741699,271.643555 L425.899902,271.643555 Z M285.893066,323.429688 L270.881348,323.429688 L270.881348,320.148438 L285.893066,320.148438 L285.893066,323.429688 Z M285.893066,332.001953 L270.881348,332.001953 L270.881348,328.720703 L285.893066,328.720703 L285.893066,332.001953 Z M101.302246,367.935547 L101.36377,368.058594 C101.350098,371.039077 100.557137,373.346183 98.9848633,374.97998 C97.4125898,376.613778 95.1909323,377.430664 92.3198242,377.430664 C89.3940283,377.430664 87.0561611,376.446299 85.3061523,374.477539 C83.5561436,372.508779 82.6811523,369.76076 82.6811523,366.233398 L82.6811523,357.948242 C82.6811523,354.420881 83.5458898,351.666026 85.2753906,349.683594 C87.0048915,347.701162 89.3119973,346.709961 92.1967773,346.709961 C95.1225732,346.709961 97.3715742,347.509758 98.9438477,349.109375 C100.516121,350.708992 101.322754,353.04686 101.36377,356.123047 L101.302246,356.246094 L97.3647461,356.246094 C97.3237303,354.072255 96.8930705,352.472661 96.0727539,351.447266 C95.2524373,350.42187 93.960458,349.90918 92.1967773,349.90918 C90.4877844,349.90918 89.1616258,350.599602 88.2182617,351.980469 C87.2748976,353.361335 86.8032227,355.330065 86.8032227,357.886719 L86.8032227,366.233398 C86.8032227,368.831068 87.2851514,370.820306 88.2490234,372.201172 C89.2128954,373.582038 90.5698155,374.272461 92.3198242,374.272461 C94.0424891,374.272461 95.3037069,373.770025 96.1035156,372.765137 C96.9033243,371.760249 97.3168944,370.150402 97.3442383,367.935547 L101.302246,367.935547 Z M117.01123,354.810547 L121.153809,354.810547 L121.153809,377 L117.01123,377 L117.01123,361.947266 L116.888184,361.926758 L109.587402,377 L105.424316,377 L105.424316,354.810547 L109.587402,354.810547 L109.587402,369.842773 L109.710449,369.863281 L117.01123,354.810547 Z M141.76416,377 L137.601074,377 L137.601074,367.525391 L130.218262,367.525391 L130.218262,377 L126.055176,377 L126.055176,354.810547 L130.218262,354.810547 L130.218262,364.367188 L137.601074,364.367188 L137.601074,354.810547 L141.76416,354.810547 L141.76416,377 Z M154.643066,377.430664 C152.004381,377.430664 149.892098,376.514658 148.306152,374.682617 C146.720207,372.850577 145.927246,370.505874 145.927246,367.648438 L145.927246,364.408203 C145.927246,361.509751 146.703117,359.117197 148.254883,357.230469 C149.806648,355.343741 151.778797,354.400391 154.171387,354.400391 C156.687024,354.400391 158.621575,355.258292 159.975098,356.974121 C161.32862,358.68995 162.005371,360.997056 162.005371,363.895508 L162.005371,366.766602 L150.069824,366.766602 L150.069824,367.648438 C150.069824,369.56251 150.49023,371.145013 151.331055,372.395996 C152.171879,373.646979 153.364738,374.272461 154.909668,374.272461 C156.058111,374.272461 157.042476,374.09131 157.862793,373.729004 C158.68311,373.366697 159.462399,372.836918 160.200684,372.139648 L161.513184,374.723633 C160.815914,375.516606 159.8794,376.166013 158.703613,376.671875 C157.527826,377.177737 156.174324,377.430664 154.643066,377.430664 L154.643066,377.430664 Z M154.171387,357.599609 C152.968256,357.599609 152.004398,358.184076 151.279785,359.353027 C150.555172,360.521979 150.151856,362.001944 150.069824,363.792969 L157.883301,363.792969 L157.883301,362.952148 C157.883301,361.379875 157.568851,360.094732 156.939941,359.09668 C156.311032,358.098628 155.38819,357.599609 154.171387,357.599609 L154.171387,357.599609 Z M182.103027,367.750977 C182.103027,370.676772 181.460456,373.021476 180.175293,374.785156 C178.89013,376.548837 177.105968,377.430664 174.822754,377.430664 C173.74267,377.430664 172.792485,377.218752 171.972168,376.794922 C171.151851,376.371092 170.447757,375.749028 169.859863,374.928711 L169.859863,385.53125 L165.696777,385.53125 L165.696777,354.810547 L169.408691,354.810547 L169.675293,357.353516 C170.263187,356.410152 170.980953,355.682131 171.828613,355.169434 C172.676274,354.656736 173.660639,354.400391 174.781738,354.400391 C177.092297,354.400391 178.89013,355.371084 180.175293,357.3125 C181.460456,359.253916 182.103027,361.824203 182.103027,365.023438 L182.103027,367.750977 Z M177.939941,365.023438 C177.939941,362.849599 177.581058,361.07569 176.863281,359.70166 C176.145504,358.32763 175.075691,357.640625 173.653809,357.640625 C172.765132,357.640625 172.006351,357.893552 171.377441,358.399414 C170.748532,358.905276 170.242678,359.595699 169.859863,360.470703 L169.859863,371.688477 C170.229006,372.522465 170.728024,373.161619 171.356934,373.605957 C171.985843,374.050295 172.758296,374.272461 173.674316,374.272461 C175.10987,374.272461 176.179684,373.674322 176.883789,372.478027 C177.587894,371.281732 177.939941,369.706064 177.939941,367.750977 L177.939941,365.023438 Z M198.509277,358.030273 L190.306152,358.030273 L190.306152,377 L186.163574,377 L186.163574,354.810547 L198.509277,354.810547 L198.509277,358.030273 Z M212.987793,354.810547 L217.130371,354.810547 L217.130371,377 L212.987793,377 L212.987793,361.947266 L212.864746,361.926758 L205.563965,377 L201.400879,377 L201.400879,354.810547 L205.563965,354.810547 L205.563965,369.842773 L205.687012,369.863281 L212.987793,354.810547 Z M236.940918,377 L232.79834,377 L232.79834,368.960938 C232.224118,369.138673 231.646487,369.271972 231.06543,369.36084 C230.484372,369.449707 229.920413,369.494141 229.373535,369.494141 C226.80321,369.494141 224.831062,368.81739 223.457031,367.463867 C222.083001,366.110345 221.395996,363.984389 221.395996,361.085938 L221.395996,354.810547 L225.538574,354.810547 L225.538574,361.085938 C225.538574,363.00001 225.84277,364.350094 226.451172,365.13623 C227.059573,365.922367 228.033685,366.31543 229.373535,366.31543 C229.961429,366.31543 230.535642,366.264161 231.096191,366.161621 C231.656741,366.059082 232.224118,365.91211 232.79834,365.720703 L232.79834,354.810547 L236.940918,354.810547 L236.940918,377 Z M249.819824,377.430664 C247.181139,377.430664 245.068856,376.514658 243.48291,374.682617 C241.896965,372.850577 241.104004,370.505874 241.104004,367.648438 L241.104004,364.408203 C241.104004,361.509751 241.879875,359.117197 243.431641,357.230469 C244.983406,355.343741 246.955554,354.400391 249.348145,354.400391 C251.863782,354.400391 253.798333,355.258292 255.151855,356.974121 C256.505378,358.68995 257.182129,360.997056 257.182129,363.895508 L257.182129,366.766602 L245.246582,366.766602 L245.246582,367.648438 C245.246582,369.56251 245.666988,371.145013 246.507813,372.395996 C247.348637,373.646979 248.541496,374.272461 250.086426,374.272461 C251.234869,374.272461 252.219234,374.09131 253.039551,373.729004 C253.859867,373.366697 254.639156,372.836918 255.377441,372.139648 L256.689941,374.723633 C255.992672,375.516606 255.056158,376.166013 253.880371,376.671875 C252.704584,377.177737 251.351082,377.430664 249.819824,377.430664 L249.819824,377.430664 Z M249.348145,357.599609 C248.145014,357.599609 247.181156,358.184076 246.456543,359.353027 C245.73193,360.521979 245.328614,362.001944 245.246582,363.792969 L253.060059,363.792969 L253.060059,362.952148 C253.060059,361.379875 252.745609,360.094732 252.116699,359.09668 C251.48779,358.098628 250.564947,357.599609 249.348145,357.599609 L249.348145,357.599609 Z M268.584473,374.272461 C269.62354,374.272461 270.498532,373.872563 271.209473,373.072754 C271.920414,372.272945 272.275879,371.203132 272.275879,369.863281 L276.008301,369.863281 L276.049316,369.986328 C276.104004,372.078135 275.396492,373.84179 273.926758,375.277344 C272.457024,376.712898 270.67628,377.430664 268.584473,377.430664 C265.82274,377.430664 263.707039,376.49415 262.237305,374.621094 C260.767571,372.748038 260.032715,370.362319 260.032715,367.463867 L260.032715,364.408203 C260.032715,361.509751 260.767571,359.117197 262.237305,357.230469 C263.707039,355.343741 265.815904,354.400391 268.563965,354.400391 C270.806164,354.400391 272.627923,355.148918 274.029297,356.645996 C275.430671,358.143074 276.11084,360.081043 276.069824,362.459961 L276.008301,362.583008 L272.275879,362.583008 C272.275879,361.106438 271.937503,359.906743 271.260742,358.983887 C270.583981,358.061031 269.685064,357.599609 268.563965,357.599609 C266.978019,357.599609 265.853519,358.242181 265.19043,359.527344 C264.52734,360.812506 264.195801,362.439443 264.195801,364.408203 L264.195801,367.463867 C264.195801,369.459971 264.52734,371.093744 265.19043,372.365234 C265.853519,373.636725 266.984855,374.272461 268.584473,374.272461 L268.584473,374.272461 Z M286.241699,367.62793 L284.17041,367.62793 L284.17041,377 L280.007324,377 L280.007324,354.810547 L284.17041,354.810547 L284.17041,364.100586 L286.13916,364.100586 L291.245605,354.810547 L296.434082,354.810547 L289.543457,365.208008 L297.008301,377 L291.594238,377 L286.241699,367.62793 Z M311.36377,354.810547 L315.506348,354.810547 L315.506348,377 L311.36377,377 L311.36377,361.947266 L311.240723,361.926758 L303.939941,377 L299.776855,377 L299.776855,354.810547 L303.939941,354.810547 L303.939941,369.842773 L304.062988,369.863281 L311.36377,354.810547 Z M331.994629,354.810547 L336.137207,354.810547 L336.137207,377 L331.994629,377 L331.994629,361.947266 L331.871582,361.926758 L324.570801,377 L320.407715,377 L320.407715,354.810547 L324.570801,354.810547 L324.570801,369.842773 L324.693848,369.863281 L331.994629,354.810547 Z M333.963379,345.643555 L334.004395,345.766602 C334.059082,347.379891 333.563482,348.692378 332.517578,349.704102 C331.471674,350.715825 330.060067,351.22168 328.282715,351.22168 C326.49169,351.22168 325.073247,350.715825 324.027344,349.704102 C322.98144,348.692378 322.492675,347.379891 322.561035,345.766602 L322.602051,345.643555 L325.69873,345.643555 C325.69873,346.545903 325.907224,347.284177 326.324219,347.858398 C326.741213,348.43262 327.394039,348.719727 328.282715,348.719727 C329.130375,348.719727 329.762693,348.43262 330.179688,347.858398 C330.596682,347.284177 330.805176,346.545903 330.805176,345.643555 L333.963379,345.643555 Z M356.788574,357.599609 C355.77685,357.599609 354.932621,357.999508 354.255859,358.799316 C353.579098,359.599125 353.240723,360.662103 353.240723,361.988281 L349.467285,361.988281 L349.405762,361.865234 C349.351074,359.800771 350.055168,358.040535 351.518066,356.584473 C352.980964,355.128411 354.737783,354.400391 356.788574,354.400391 C359.427259,354.400391 361.49511,355.456532 362.992188,357.568848 C364.489265,359.681163 365.237793,362.336898 365.237793,365.536133 L365.237793,366.31543 C365.237793,369.528336 364.489265,372.184072 362.992188,374.282715 C361.49511,376.381358 359.434095,377.430664 356.809082,377.430664 C354.580555,377.430664 352.775886,376.685554 351.39502,375.195312 C350.014153,373.705071 349.351074,371.763684 349.405762,369.371094 L349.446777,369.268555 L353.240723,369.268555 C353.240723,370.772468 353.565426,371.982417 354.214844,372.898438 C354.864261,373.814458 355.728999,374.272461 356.809082,374.272461 C358.148932,374.272461 359.167477,373.609382 359.864746,372.283203 C360.562015,370.957025 360.958496,369.261729 361.054199,367.197266 L355.024902,367.197266 L355.024902,364.34668 L361.033691,364.34668 C360.910644,362.364248 360.50391,360.744147 359.813477,359.486328 C359.123043,358.228509 358.114753,357.599609 356.788574,357.599609 L356.788574,357.599609 Z M368.437012,366.171875 C368.437012,362.603498 369.031732,359.749522 370.221191,357.609863 C371.41065,355.470204 373.112782,354.400391 375.327637,354.400391 C375.765139,354.400391 376.185545,354.444824 376.588867,354.533691 C376.99219,354.622559 377.378416,354.742187 377.747559,354.892578 L377.747559,345.007812 L381.931152,345.007812 L381.931152,354.954102 C382.300295,354.776366 382.703611,354.639649 383.141113,354.543945 C383.578615,354.448242 384.043455,354.400391 384.535645,354.400391 C386.736827,354.400391 388.432123,355.470204 389.621582,357.609863 C390.811041,359.749522 391.405762,362.603498 391.405762,366.171875 L391.405762,366.602539 C391.405762,369.897477 390.807623,372.525869 389.611328,374.487793 C388.415033,376.449717 386.729991,377.430664 384.556152,377.430664 C384.05029,377.430664 383.578615,377.386231 383.141113,377.297363 C382.703611,377.208496 382.300295,377.082032 381.931152,376.917969 L381.931152,385.53125 L377.747559,385.53125 L377.747559,376.958984 C377.378416,377.109376 376.988772,377.225586 376.578613,377.307617 C376.168455,377.389649 375.737795,377.430664 375.286621,377.430664 C373.112782,377.430664 371.42774,376.446299 370.231445,374.477539 C369.03515,372.508779 368.437012,369.883805 368.437012,366.602539 L368.437012,366.171875 Z M387.242676,366.171875 C387.242676,363.628894 386.928226,361.564461 386.299316,359.978516 C385.670407,358.39257 384.699714,357.599609 383.387207,357.599609 C383.100096,357.599609 382.836915,357.620117 382.597656,357.661133 C382.358397,357.702149 382.136231,357.763671 381.931152,357.845703 L381.931152,374.067383 C382.12256,374.149414 382.341307,374.204101 382.587402,374.231445 C382.833497,374.258789 383.113768,374.272461 383.428223,374.272461 C384.740729,374.272461 385.704587,373.57862 386.319824,372.190918 C386.935062,370.803216 387.242676,368.940441 387.242676,366.602539 L387.242676,366.171875 Z M372.600098,366.602539 C372.600098,368.954113 372.89404,370.820306 373.481934,372.201172 C374.069827,373.582038 375.020013,374.272461 376.33252,374.272461 C376.592286,374.272461 376.841796,374.258789 377.081055,374.231445 C377.320314,374.204101 377.542479,374.15625 377.747559,374.087891 L377.747559,357.804688 C377.542479,357.75 377.323732,357.702149 377.091309,357.661133 C376.858886,357.620117 376.61963,357.599609 376.373535,357.599609 C375.047357,357.599609 374.086917,358.385734 373.492188,359.958008 C372.897458,361.530281 372.600098,363.60155 372.600098,366.171875 L372.600098,366.602539 Z M394.625488,366.171875 C394.625488,362.603498 395.220209,359.749522 396.409668,357.609863 C397.599127,355.470204 399.301258,354.400391 401.516113,354.400391 C401.953615,354.400391 402.374021,354.444824 402.777344,354.533691 C403.180666,354.622559 403.566893,354.742187 403.936035,354.892578 L403.936035,345.007812 L408.119629,345.007812 L408.119629,354.954102 C408.488771,354.776366 408.892088,354.639649 409.32959,354.543945 C409.767092,354.448242 410.231931,354.400391 410.724121,354.400391 C412.925304,354.400391 414.6206,355.470204 415.810059,357.609863 C416.999518,359.749522 417.594238,362.603498 417.594238,366.171875 L417.594238,366.602539 C417.594238,369.897477 416.9961,372.525869 415.799805,374.487793 C414.60351,376.449717 412.918468,377.430664 410.744629,377.430664 C410.238767,377.430664 409.767092,377.386231 409.32959,377.297363 C408.892088,377.208496 408.488771,377.082032 408.119629,376.917969 L408.119629,385.53125 L403.936035,385.53125 L403.936035,376.958984 C403.566893,377.109376 403.177248,377.225586 402.76709,377.307617 C402.356932,377.389649 401.926272,377.430664 401.475098,377.430664 C399.301259,377.430664 397.616217,376.446299 396.419922,374.477539 C395.223627,372.508779 394.625488,369.883805 394.625488,366.602539 L394.625488,366.171875 Z M413.431152,366.171875 C413.431152,363.628894 413.116702,361.564461 412.487793,359.978516 C411.858884,358.39257 410.88819,357.599609 409.575684,357.599609 C409.288573,357.599609 409.025392,357.620117 408.786133,357.661133 C408.546874,357.702149 408.324708,357.763671 408.119629,357.845703 L408.119629,374.067383 C408.311036,374.149414 408.529784,374.204101 408.775879,374.231445 C409.021974,374.258789 409.302245,374.272461 409.616699,374.272461 C410.929206,374.272461 411.893063,373.57862 412.508301,372.190918 C413.123538,370.803216 413.431152,368.940441 413.431152,366.602539 L413.431152,366.171875 Z M398.788574,366.602539 C398.788574,368.954113 399.082517,370.820306 399.67041,372.201172 C400.258304,373.582038 401.20849,374.272461 402.520996,374.272461 C402.780763,374.272461 403.030272,374.258789 403.269531,374.231445 C403.50879,374.204101 403.730956,374.15625 403.936035,374.087891 L403.936035,357.804688 C403.730956,357.75 403.512208,357.702149 403.279785,357.661133 C403.047362,357.620117 402.808107,357.599609 402.562012,357.599609 C401.235833,357.599609 400.275394,358.385734 399.680664,359.958008 C399.085935,361.530281 398.788574,363.60155 398.788574,366.171875 L398.788574,366.602539 Z M429.611816,377.430664 C426.973131,377.430664 424.860848,376.514658 423.274902,374.682617 C421.688957,372.850577 420.895996,370.505874 420.895996,367.648438 L420.895996,364.408203 C420.895996,361.509751 421.671867,359.117197 423.223633,357.230469 C424.775398,355.343741 426.747547,354.400391 429.140137,354.400391 C431.655774,354.400391 433.590325,355.258292 434.943848,356.974121 C436.29737,358.68995 436.974121,360.997056 436.974121,363.895508 L436.974121,366.766602 L425.038574,366.766602 L425.038574,367.648438 C425.038574,369.56251 425.45898,371.145013 426.299805,372.395996 C427.140629,373.646979 428.333488,374.272461 429.878418,374.272461 C431.026861,374.272461 432.011226,374.09131 432.831543,373.729004 C433.65186,373.366697 434.431149,372.836918 435.169434,372.139648 L436.481934,374.723633 C435.784664,375.516606 434.84815,376.166013 433.672363,376.671875 C432.496576,377.177737 431.143074,377.430664 429.611816,377.430664 L429.611816,377.430664 Z M429.140137,357.599609 C427.937006,357.599609 426.973148,358.184076 426.248535,359.353027 C425.523922,360.521979 425.120606,362.001944 425.038574,363.792969 L432.852051,363.792969 L432.852051,362.952148 C432.852051,361.379875 432.537601,360.094732 431.908691,359.09668 C431.279782,358.098628 430.35694,357.599609 429.140137,357.599609 L429.140137,357.599609 Z M447.145996,367.62793 L445.074707,367.62793 L445.074707,377 L440.911621,377 L440.911621,354.810547 L445.074707,354.810547 L445.074707,364.100586 L447.043457,364.100586 L452.149902,354.810547 L457.338379,354.810547 L450.447754,365.208008 L457.912598,377 L452.498535,377 L447.145996,367.62793 Z M475.405762,357.989258 L469.253418,357.989258 L469.253418,377 L465.069824,377 L465.069824,357.989258 L459.040527,357.989258 L459.040527,354.810547 L475.405762,354.810547 L475.405762,357.989258 Z" id="-ИТОГ:-3" fill="#FFFFFF" sketch:type="MSShapeGroup"></path>
        </g>
    </g>
</svg>